<?xml version="1.0" encoding="utf-8" standalone="no"?>
<!DOCTYPE svg PUBLIC "-//W3C//DTD SVG 1.1//EN"
  "http://www.w3.org/Graphics/SVG/1.1/DTD/svg11.dtd">
<svg xmlns:xlink="http://www.w3.org/1999/xlink" width="669.134531pt" height="260.138438pt" viewBox="0 0 669.134531 260.138438" xmlns="http://www.w3.org/2000/svg" version="1.1">
 <metadata>
  <rdf:RDF xmlns:dc="http://purl.org/dc/elements/1.1/" xmlns:cc="http://creativecommons.org/ns#" xmlns:rdf="http://www.w3.org/1999/02/22-rdf-syntax-ns#">
   <cc:Work>
    <dc:type rdf:resource="http://purl.org/dc/dcmitype/StillImage"/>
    <dc:date>2026-07-30T20:50:56.661980</dc:date>
    <dc:format>image/svg+xml</dc:format>
    <dc:creator>
     <cc:Agent>
      <dc:title>Matplotlib v3.11.0, https://matplotlib.org/</dc:title>
     </cc:Agent>
    </dc:creator>
   </cc:Work>
  </rdf:RDF>
 </metadata>
 <defs>
  <style type="text/css">*{stroke-linejoin: round; stroke-linecap: butt}</style>
 </defs>
 <g id="figure_1">
  <g id="patch_1">
   <path d="M 0 260.138438 
L 669.134531 260.138438 
L 669.134531 0 
L 0 0 
L 0 260.138438 
z
" style="fill: none; opacity: 0"/>
  </g>
  <g id="axes_1">
   <g id="patch_2">
    <path d="M 36.054531 221.315547 
L 322.853359 221.315547 
L 322.853359 59.7 
L 36.054531 59.7 
L 36.054531 221.315547 
z
" style="fill: none"/>
   </g>
   <g id="matplotlib.axis_1">
    <g id="xtick_1">
     <g id="line2d_1">
      <path d="M 36.054531 221.315547 
L 36.054531 59.7 
" clip-path="url(#p616aff8ac7)" style="fill: none; stroke: #e1e0d9; stroke-opacity: 0.9; stroke-width: 0.6; stroke-linecap: square"/>
     </g>
     <g id="line2d_2">
      <defs>
       <path id="m2707b6f9ee" d="M 0 0 
L 0 3.5 
" style="stroke: #898781; stroke-width: 0.8"/>
      </defs>
      <g>
       <use xlink:href="#m2707b6f9ee" x="36.054531" y="221.315547" style="fill: #898781; stroke: #898781; stroke-width: 0.8"/>
      </g>
     </g>
     <g id="text_1">
      <!-- 0.0 -->
      <g style="fill: #898781" transform="translate(28.898125 235.153437) scale(0.09 -0.09)">
       <defs>
        <path id="DejaVuSans-13" d="M 2034 4250 
Q 1547 4250 1301 3770 
Q 1056 3291 1056 2328 
Q 1056 1369 1301 889 
Q 1547 409 2034 409 
Q 2525 409 2770 889 
Q 3016 1369 3016 2328 
Q 3016 3291 2770 3770 
Q 2525 4250 2034 4250 
z
M 2034 4750 
Q 2819 4750 3233 4129 
Q 3647 3509 3647 2328 
Q 3647 1150 3233 529 
Q 2819 -91 2034 -91 
Q 1250 -91 836 529 
Q 422 1150 422 2328 
Q 422 3509 836 4129 
Q 1250 4750 2034 4750 
z
" transform="scale(0.015625)"/>
        <path id="DejaVuSans-11" d="M 684 794 
L 1344 794 
L 1344 0 
L 684 0 
L 684 794 
z
" transform="scale(0.015625)"/>
       </defs>
       <use xlink:href="#DejaVuSans-13"/>
       <use xlink:href="#DejaVuSans-11" transform="translate(63.625 0)"/>
       <use xlink:href="#DejaVuSans-13" transform="translate(95.40625 0)"/>
      </g>
     </g>
    </g>
    <g id="xtick_2">
     <g id="line2d_3">
      <path d="M 82.312407 221.315547 
L 82.312407 59.7 
" clip-path="url(#p616aff8ac7)" style="fill: none; stroke: #e1e0d9; stroke-opacity: 0.9; stroke-width: 0.6; stroke-linecap: square"/>
     </g>
     <g id="line2d_4">
      <g>
       <use xlink:href="#m2707b6f9ee" x="82.312407" y="221.315547" style="fill: #898781; stroke: #898781; stroke-width: 0.8"/>
      </g>
     </g>
     <g id="text_2">
      <!-- 0.1 -->
      <g style="fill: #898781" transform="translate(75.156001 235.153437) scale(0.09 -0.09)">
       <defs>
        <path id="DejaVuSans-14" d="M 794 531 
L 1825 531 
L 1825 4091 
L 703 3866 
L 703 4441 
L 1819 4666 
L 2450 4666 
L 2450 531 
L 3481 531 
L 3481 0 
L 794 0 
L 794 531 
z
" transform="scale(0.015625)"/>
       </defs>
       <use xlink:href="#DejaVuSans-13"/>
       <use xlink:href="#DejaVuSans-11" transform="translate(63.625 0)"/>
       <use xlink:href="#DejaVuSans-14" transform="translate(95.40625 0)"/>
      </g>
     </g>
    </g>
    <g id="xtick_3">
     <g id="line2d_5">
      <path d="M 128.570282 221.315547 
L 128.570282 59.7 
" clip-path="url(#p616aff8ac7)" style="fill: none; stroke: #e1e0d9; stroke-opacity: 0.9; stroke-width: 0.6; stroke-linecap: square"/>
     </g>
     <g id="line2d_6">
      <g>
       <use xlink:href="#m2707b6f9ee" x="128.570282" y="221.315547" style="fill: #898781; stroke: #898781; stroke-width: 0.8"/>
      </g>
     </g>
     <g id="text_3">
      <!-- 0.2 -->
      <g style="fill: #898781" transform="translate(121.413876 235.153437) scale(0.09 -0.09)">
       <defs>
        <path id="DejaVuSans-15" d="M 1228 531 
L 3431 531 
L 3431 0 
L 469 0 
L 469 531 
Q 828 903 1448 1529 
Q 2069 2156 2228 2338 
Q 2531 2678 2651 2914 
Q 2772 3150 2772 3378 
Q 2772 3750 2511 3984 
Q 2250 4219 1831 4219 
Q 1534 4219 1204 4116 
Q 875 4013 500 3803 
L 500 4441 
Q 881 4594 1212 4672 
Q 1544 4750 1819 4750 
Q 2544 4750 2975 4387 
Q 3406 4025 3406 3419 
Q 3406 3131 3298 2873 
Q 3191 2616 2906 2266 
Q 2828 2175 2409 1742 
Q 1991 1309 1228 531 
z
" transform="scale(0.015625)"/>
       </defs>
       <use xlink:href="#DejaVuSans-13"/>
       <use xlink:href="#DejaVuSans-11" transform="translate(63.625 0)"/>
       <use xlink:href="#DejaVuSans-15" transform="translate(95.40625 0)"/>
      </g>
     </g>
    </g>
    <g id="xtick_4">
     <g id="line2d_7">
      <path d="M 174.828158 221.315547 
L 174.828158 59.7 
" clip-path="url(#p616aff8ac7)" style="fill: none; stroke: #e1e0d9; stroke-opacity: 0.9; stroke-width: 0.6; stroke-linecap: square"/>
     </g>
     <g id="line2d_8">
      <g>
       <use xlink:href="#m2707b6f9ee" x="174.828158" y="221.315547" style="fill: #898781; stroke: #898781; stroke-width: 0.8"/>
      </g>
     </g>
     <g id="text_4">
      <!-- 0.3 -->
      <g style="fill: #898781" transform="translate(167.671752 235.153437) scale(0.09 -0.09)">
       <defs>
        <path id="DejaVuSans-16" d="M 2597 2516 
Q 3050 2419 3304 2112 
Q 3559 1806 3559 1356 
Q 3559 666 3084 287 
Q 2609 -91 1734 -91 
Q 1441 -91 1130 -33 
Q 819 25 488 141 
L 488 750 
Q 750 597 1062 519 
Q 1375 441 1716 441 
Q 2309 441 2620 675 
Q 2931 909 2931 1356 
Q 2931 1769 2642 2001 
Q 2353 2234 1838 2234 
L 1294 2234 
L 1294 2753 
L 1863 2753 
Q 2328 2753 2575 2939 
Q 2822 3125 2822 3475 
Q 2822 3834 2567 4026 
Q 2313 4219 1838 4219 
Q 1578 4219 1281 4162 
Q 984 4106 628 3988 
L 628 4550 
Q 988 4650 1302 4700 
Q 1616 4750 1894 4750 
Q 2613 4750 3031 4423 
Q 3450 4097 3450 3541 
Q 3450 3153 3228 2886 
Q 3006 2619 2597 2516 
z
" transform="scale(0.015625)"/>
       </defs>
       <use xlink:href="#DejaVuSans-13"/>
       <use xlink:href="#DejaVuSans-11" transform="translate(63.625 0)"/>
       <use xlink:href="#DejaVuSans-16" transform="translate(95.40625 0)"/>
      </g>
     </g>
    </g>
    <g id="xtick_5">
     <g id="line2d_9">
      <path d="M 221.086033 221.315547 
L 221.086033 59.7 
" clip-path="url(#p616aff8ac7)" style="fill: none; stroke: #e1e0d9; stroke-opacity: 0.9; stroke-width: 0.6; stroke-linecap: square"/>
     </g>
     <g id="line2d_10">
      <g>
       <use xlink:href="#m2707b6f9ee" x="221.086033" y="221.315547" style="fill: #898781; stroke: #898781; stroke-width: 0.8"/>
      </g>
     </g>
     <g id="text_5">
      <!-- 0.4 -->
      <g style="fill: #898781" transform="translate(213.929627 235.153437) scale(0.09 -0.09)">
       <defs>
        <path id="DejaVuSans-17" d="M 2419 4116 
L 825 1625 
L 2419 1625 
L 2419 4116 
z
M 2253 4666 
L 3047 4666 
L 3047 1625 
L 3713 1625 
L 3713 1100 
L 3047 1100 
L 3047 0 
L 2419 0 
L 2419 1100 
L 313 1100 
L 313 1709 
L 2253 4666 
z
" transform="scale(0.015625)"/>
       </defs>
       <use xlink:href="#DejaVuSans-13"/>
       <use xlink:href="#DejaVuSans-11" transform="translate(63.625 0)"/>
       <use xlink:href="#DejaVuSans-17" transform="translate(95.40625 0)"/>
      </g>
     </g>
    </g>
    <g id="xtick_6">
     <g id="line2d_11">
      <path d="M 267.343909 221.315547 
L 267.343909 59.7 
" clip-path="url(#p616aff8ac7)" style="fill: none; stroke: #e1e0d9; stroke-opacity: 0.9; stroke-width: 0.6; stroke-linecap: square"/>
     </g>
     <g id="line2d_12">
      <g>
       <use xlink:href="#m2707b6f9ee" x="267.343909" y="221.315547" style="fill: #898781; stroke: #898781; stroke-width: 0.8"/>
      </g>
     </g>
     <g id="text_6">
      <!-- 0.5 -->
      <g style="fill: #898781" transform="translate(260.187503 235.153437) scale(0.09 -0.09)">
       <defs>
        <path id="DejaVuSans-18" d="M 691 4666 
L 3169 4666 
L 3169 4134 
L 1269 4134 
L 1269 2991 
Q 1406 3038 1543 3061 
Q 1681 3084 1819 3084 
Q 2600 3084 3056 2656 
Q 3513 2228 3513 1497 
Q 3513 744 3044 326 
Q 2575 -91 1722 -91 
Q 1428 -91 1123 -41 
Q 819 9 494 109 
L 494 744 
Q 775 591 1075 516 
Q 1375 441 1709 441 
Q 2250 441 2565 725 
Q 2881 1009 2881 1497 
Q 2881 1984 2565 2268 
Q 2250 2553 1709 2553 
Q 1456 2553 1204 2497 
Q 953 2441 691 2322 
L 691 4666 
z
" transform="scale(0.015625)"/>
       </defs>
       <use xlink:href="#DejaVuSans-13"/>
       <use xlink:href="#DejaVuSans-11" transform="translate(63.625 0)"/>
       <use xlink:href="#DejaVuSans-18" transform="translate(95.40625 0)"/>
      </g>
     </g>
    </g>
    <g id="xtick_7">
     <g id="line2d_13">
      <path d="M 313.601784 221.315547 
L 313.601784 59.7 
" clip-path="url(#p616aff8ac7)" style="fill: none; stroke: #e1e0d9; stroke-opacity: 0.9; stroke-width: 0.6; stroke-linecap: square"/>
     </g>
     <g id="line2d_14">
      <g>
       <use xlink:href="#m2707b6f9ee" x="313.601784" y="221.315547" style="fill: #898781; stroke: #898781; stroke-width: 0.8"/>
      </g>
     </g>
     <g id="text_7">
      <!-- 0.6 -->
      <g style="fill: #898781" transform="translate(306.445378 235.153437) scale(0.09 -0.09)">
       <defs>
        <path id="DejaVuSans-19" d="M 2113 2584 
Q 1688 2584 1439 2293 
Q 1191 2003 1191 1497 
Q 1191 994 1439 701 
Q 1688 409 2113 409 
Q 2538 409 2786 701 
Q 3034 994 3034 1497 
Q 3034 2003 2786 2293 
Q 2538 2584 2113 2584 
z
M 3366 4563 
L 3366 3988 
Q 3128 4100 2886 4159 
Q 2644 4219 2406 4219 
Q 1781 4219 1451 3797 
Q 1122 3375 1075 2522 
Q 1259 2794 1537 2939 
Q 1816 3084 2150 3084 
Q 2853 3084 3261 2657 
Q 3669 2231 3669 1497 
Q 3669 778 3244 343 
Q 2819 -91 2113 -91 
Q 1303 -91 875 529 
Q 447 1150 447 2328 
Q 447 3434 972 4092 
Q 1497 4750 2381 4750 
Q 2619 4750 2861 4703 
Q 3103 4656 3366 4563 
z
" transform="scale(0.015625)"/>
       </defs>
       <use xlink:href="#DejaVuSans-13"/>
       <use xlink:href="#DejaVuSans-11" transform="translate(63.625 0)"/>
       <use xlink:href="#DejaVuSans-19" transform="translate(95.40625 0)"/>
      </g>
     </g>
    </g>
    <g id="text_8">
     <!-- time -->
     <g style="fill: #52514e" transform="translate(168.157852 248.913984) scale(0.1 -0.1)">
      <defs>
       <path id="DejaVuSans-57" d="M 1172 4494 
L 1172 3500 
L 2356 3500 
L 2356 3053 
L 1172 3053 
L 1172 1153 
Q 1172 725 1289 603 
Q 1406 481 1766 481 
L 2356 481 
L 2356 0 
L 1766 0 
Q 1100 0 847 248 
Q 594 497 594 1153 
L 594 3053 
L 172 3053 
L 172 3500 
L 594 3500 
L 594 4494 
L 1172 4494 
z
" transform="scale(0.015625)"/>
       <path id="DejaVuSans-4c" d="M 603 3500 
L 1178 3500 
L 1178 0 
L 603 0 
L 603 3500 
z
M 603 4863 
L 1178 4863 
L 1178 4134 
L 603 4134 
L 603 4863 
z
" transform="scale(0.015625)"/>
       <path id="DejaVuSans-50" d="M 3328 2828 
Q 3544 3216 3844 3400 
Q 4144 3584 4550 3584 
Q 5097 3584 5394 3201 
Q 5691 2819 5691 2113 
L 5691 0 
L 5113 0 
L 5113 2094 
Q 5113 2597 4934 2840 
Q 4756 3084 4391 3084 
Q 3944 3084 3684 2787 
Q 3425 2491 3425 1978 
L 3425 0 
L 2847 0 
L 2847 2094 
Q 2847 2600 2669 2842 
Q 2491 3084 2119 3084 
Q 1678 3084 1418 2786 
Q 1159 2488 1159 1978 
L 1159 0 
L 581 0 
L 581 3500 
L 1159 3500 
L 1159 2956 
Q 1356 3278 1631 3431 
Q 1906 3584 2284 3584 
Q 2666 3584 2933 3390 
Q 3200 3197 3328 2828 
z
" transform="scale(0.015625)"/>
       <path id="DejaVuSans-48" d="M 3597 1894 
L 3597 1613 
L 953 1613 
Q 991 1019 1311 708 
Q 1631 397 2203 397 
Q 2534 397 2845 478 
Q 3156 559 3463 722 
L 3463 178 
Q 3153 47 2828 -22 
Q 2503 -91 2169 -91 
Q 1331 -91 842 396 
Q 353 884 353 1716 
Q 353 2575 817 3079 
Q 1281 3584 2069 3584 
Q 2775 3584 3186 3129 
Q 3597 2675 3597 1894 
z
M 3022 2063 
Q 3016 2534 2758 2815 
Q 2500 3097 2075 3097 
Q 1594 3097 1305 2825 
Q 1016 2553 972 2059 
L 3022 2063 
z
" transform="scale(0.015625)"/>
      </defs>
      <use xlink:href="#DejaVuSans-57"/>
      <use xlink:href="#DejaVuSans-4c" transform="translate(39.203125 0)"/>
      <use xlink:href="#DejaVuSans-50" transform="translate(66.984375 0)"/>
      <use xlink:href="#DejaVuSans-48" transform="translate(164.390625 0)"/>
     </g>
    </g>
   </g>
   <g id="matplotlib.axis_2">
    <g id="ytick_1">
     <g id="line2d_15">
      <path d="M 36.054531 197.855226 
L 322.853359 197.855226 
" clip-path="url(#p616aff8ac7)" style="fill: none; stroke: #e1e0d9; stroke-opacity: 0.9; stroke-width: 0.6; stroke-linecap: square"/>
     </g>
     <g id="line2d_16">
      <defs>
       <path id="md52b3bfbbb" d="M 0 0 
L -3.5 0 
" style="stroke: #898781; stroke-width: 0.8"/>
      </defs>
      <g>
       <use xlink:href="#md52b3bfbbb" x="36.054531" y="197.855226" style="fill: #898781; stroke: #898781; stroke-width: 0.8"/>
      </g>
     </g>
     <g id="text_9">
      <!-- −1.0 -->
      <g style="fill: #898781" transform="translate(7.2 201.274171) scale(0.09 -0.09)">
       <defs>
        <path id="DejaVuSans-c9c" d="M 678 2272 
L 4684 2272 
L 4684 1741 
L 678 1741 
L 678 2272 
z
" transform="scale(0.015625)"/>
       </defs>
       <use xlink:href="#DejaVuSans-c9c"/>
       <use xlink:href="#DejaVuSans-14" transform="translate(83.796875 0)"/>
       <use xlink:href="#DejaVuSans-11" transform="translate(147.421875 0)"/>
       <use xlink:href="#DejaVuSans-13" transform="translate(179.203125 0)"/>
      </g>
     </g>
    </g>
    <g id="ytick_2">
     <g id="line2d_17">
      <path d="M 36.054531 171.788202 
L 322.853359 171.788202 
" clip-path="url(#p616aff8ac7)" style="fill: none; stroke: #e1e0d9; stroke-opacity: 0.9; stroke-width: 0.6; stroke-linecap: square"/>
     </g>
     <g id="line2d_18">
      <g>
       <use xlink:href="#md52b3bfbbb" x="36.054531" y="171.788202" style="fill: #898781; stroke: #898781; stroke-width: 0.8"/>
      </g>
     </g>
     <g id="text_10">
      <!-- −0.5 -->
      <g style="fill: #898781" transform="translate(7.2 175.207147) scale(0.09 -0.09)">
       <use xlink:href="#DejaVuSans-c9c"/>
       <use xlink:href="#DejaVuSans-13" transform="translate(83.796875 0)"/>
       <use xlink:href="#DejaVuSans-11" transform="translate(147.421875 0)"/>
       <use xlink:href="#DejaVuSans-18" transform="translate(179.203125 0)"/>
      </g>
     </g>
    </g>
    <g id="ytick_3">
     <g id="line2d_19">
      <path d="M 36.054531 145.721178 
L 322.853359 145.721178 
" clip-path="url(#p616aff8ac7)" style="fill: none; stroke: #e1e0d9; stroke-opacity: 0.9; stroke-width: 0.6; stroke-linecap: square"/>
     </g>
     <g id="line2d_20">
      <g>
       <use xlink:href="#md52b3bfbbb" x="36.054531" y="145.721178" style="fill: #898781; stroke: #898781; stroke-width: 0.8"/>
      </g>
     </g>
     <g id="text_11">
      <!-- 0.0 -->
      <g style="fill: #898781" transform="translate(14.741719 149.140123) scale(0.09 -0.09)">
       <use xlink:href="#DejaVuSans-13"/>
       <use xlink:href="#DejaVuSans-11" transform="translate(63.625 0)"/>
       <use xlink:href="#DejaVuSans-13" transform="translate(95.40625 0)"/>
      </g>
     </g>
    </g>
    <g id="ytick_4">
     <g id="line2d_21">
      <path d="M 36.054531 119.654154 
L 322.853359 119.654154 
" clip-path="url(#p616aff8ac7)" style="fill: none; stroke: #e1e0d9; stroke-opacity: 0.9; stroke-width: 0.6; stroke-linecap: square"/>
     </g>
     <g id="line2d_22">
      <g>
       <use xlink:href="#md52b3bfbbb" x="36.054531" y="119.654154" style="fill: #898781; stroke: #898781; stroke-width: 0.8"/>
      </g>
     </g>
     <g id="text_12">
      <!-- 0.5 -->
      <g style="fill: #898781" transform="translate(14.741719 123.0731) scale(0.09 -0.09)">
       <use xlink:href="#DejaVuSans-13"/>
       <use xlink:href="#DejaVuSans-11" transform="translate(63.625 0)"/>
       <use xlink:href="#DejaVuSans-18" transform="translate(95.40625 0)"/>
      </g>
     </g>
    </g>
    <g id="ytick_5">
     <g id="line2d_23">
      <path d="M 36.054531 93.587131 
L 322.853359 93.587131 
" clip-path="url(#p616aff8ac7)" style="fill: none; stroke: #e1e0d9; stroke-opacity: 0.9; stroke-width: 0.6; stroke-linecap: square"/>
     </g>
     <g id="line2d_24">
      <g>
       <use xlink:href="#md52b3bfbbb" x="36.054531" y="93.587131" style="fill: #898781; stroke: #898781; stroke-width: 0.8"/>
      </g>
     </g>
     <g id="text_13">
      <!-- 1.0 -->
      <g style="fill: #898781" transform="translate(14.741719 97.006076) scale(0.09 -0.09)">
       <use xlink:href="#DejaVuSans-14"/>
       <use xlink:href="#DejaVuSans-11" transform="translate(63.625 0)"/>
       <use xlink:href="#DejaVuSans-13" transform="translate(95.40625 0)"/>
      </g>
     </g>
    </g>
    <g id="ytick_6">
     <g id="line2d_25">
      <path d="M 36.054531 67.520107 
L 322.853359 67.520107 
" clip-path="url(#p616aff8ac7)" style="fill: none; stroke: #e1e0d9; stroke-opacity: 0.9; stroke-width: 0.6; stroke-linecap: square"/>
     </g>
     <g id="line2d_26">
      <g>
       <use xlink:href="#md52b3bfbbb" x="36.054531" y="67.520107" style="fill: #898781; stroke: #898781; stroke-width: 0.8"/>
      </g>
     </g>
     <g id="text_14">
      <!-- 1.5 -->
      <g style="fill: #898781" transform="translate(14.741719 70.939052) scale(0.09 -0.09)">
       <use xlink:href="#DejaVuSans-14"/>
       <use xlink:href="#DejaVuSans-11" transform="translate(63.625 0)"/>
       <use xlink:href="#DejaVuSans-18" transform="translate(95.40625 0)"/>
      </g>
     </g>
    </g>
   </g>
   <g id="line2d_27">
    <path d="M 36.054531 93.587131 
L 267.112619 93.587131 
L 267.343909 197.855226 
L 323.084649 197.855226 
L 323.084649 197.855226 
" clip-path="url(#p616aff8ac7)" style="fill: none; stroke-dasharray: 1.4,2.31; stroke-dashoffset: 0; stroke: #898781; stroke-width: 1.4"/>
   </g>
   <g id="line2d_28">
    <path d="M 36.054531 145.721178 
L 53.401235 130.225278 
L 62.65281 122.257825 
L 70.516649 115.771639 
L 77.45533 110.329709 
L 83.931432 105.533068 
L 89.944956 101.356552 
L 95.495901 97.763276 
L 100.815557 94.575179 
L 105.903923 91.775246 
L 110.99229 89.232904 
L 115.849366 87.057584 
L 120.475154 85.223021 
L 125.100942 83.627217 
L 129.49544 82.3381 
L 133.889938 81.274745 
L 138.284436 80.44094 
L 142.678934 79.839655 
L 147.073432 79.473031 
L 151.236641 79.343358 
L 155.39985 79.425887 
L 159.563059 79.720356 
L 163.957557 80.260062 
L 168.352055 81.032931 
L 172.746553 82.036212 
L 177.141052 83.266331 
L 181.766839 84.801424 
L 186.392627 86.57694 
L 191.018414 88.585871 
L 195.875491 90.937774 
L 200.963857 93.657139 
L 206.283513 96.765699 
L 211.834458 100.281536 
L 217.616693 104.218114 
L 223.630216 108.583232 
L 230.106319 113.560205 
L 237.27629 119.358846 
L 245.371418 126.203037 
L 255.085572 134.719758 
L 271.507118 149.472829 
L 285.61577 162.026931 
L 294.867345 169.962954 
L 302.499894 176.22769 
L 309.438575 181.640337 
L 315.683389 186.240439 
L 321.696912 190.395164 
L 323.084649 191.312612 
L 323.084649 191.312612 
" clip-path="url(#p616aff8ac7)" style="fill: none; stroke: #2a78d6; stroke-width: 1.3; stroke-linecap: square"/>
   </g>
   <g id="line2d_29">
    <path d="M 36.054531 145.721178 
L 42.761923 127.8689 
L 46.462553 118.640996 
L 49.469315 111.701262 
L 52.244788 105.850759 
L 54.788971 101.024626 
L 57.101865 97.124036 
L 59.183469 94.032458 
L 61.265073 91.350881 
L 63.115388 89.31664 
L 64.965703 87.611614 
L 66.816018 86.232219 
L 68.435044 85.286714 
L 70.05407 84.577845 
L 71.673095 84.096498 
L 73.292121 83.831706 
L 74.911147 83.7708 
L 76.761462 83.932557 
L 78.611777 84.318648 
L 80.693381 84.989577 
L 83.006275 85.983767 
L 85.781747 87.447198 
L 89.251088 89.550674 
L 98.733953 95.450011 
L 101.740714 96.985173 
L 104.284898 98.052589 
L 106.829081 98.873224 
L 109.141975 99.386965 
L 111.454868 99.670888 
L 113.767762 99.724326 
L 116.080656 99.553826 
L 118.39355 99.172719 
L 120.937733 98.533711 
L 123.713205 97.612615 
L 127.182546 96.211131 
L 132.502202 93.777559 
L 138.053147 91.300802 
L 141.522487 89.996981 
L 144.529249 89.11257 
L 147.073432 88.581428 
L 149.617616 88.272022 
L 152.161799 88.196529 
L 154.705982 88.357915 
L 157.250165 88.749835 
L 160.025638 89.421936 
L 163.0324 90.401809 
L 166.50174 91.787501 
L 171.590106 94.101598 
L 177.60363 96.798753 
L 180.841682 98.021792 
L 183.617154 98.850846 
L 186.161337 99.388515 
L 188.474231 99.666388 
L 190.787125 99.726173 
L 193.100019 99.557868 
L 195.412912 99.158491 
L 197.725806 98.532416 
L 200.269989 97.59631 
L 203.045462 96.309977 
L 206.052224 94.659487 
L 209.984143 92.229983 
L 217.616693 87.447198 
L 220.392165 85.983767 
L 222.705059 84.989577 
L 224.786663 84.318648 
L 226.636978 83.932557 
L 228.487293 83.7708 
L 230.106319 83.831706 
L 231.725345 84.096498 
L 233.34437 84.577845 
L 234.963396 85.286714 
L 236.582422 86.232219 
L 238.201447 87.421496 
L 240.051762 89.085545 
L 241.902077 91.078568 
L 243.752392 93.400802 
L 245.833997 96.402128 
L 247.915601 99.804297 
L 250.228495 104.033453 
L 252.772678 109.193655 
L 255.548151 115.367034 
L 258.786202 123.173563 
L 262.718121 133.304673 
L 269.888092 152.586912 
L 274.976458 165.939458 
L 278.445799 174.452739 
L 281.452561 181.25723 
L 283.996744 186.508939 
L 286.309638 190.829201 
L 288.622532 194.681742 
L 290.704136 197.728267 
L 292.78574 200.363788 
L 294.636055 202.356812 
L 296.48637 204.02086 
L 298.336685 205.35999 
L 299.955711 206.271206 
L 301.574737 206.946969 
L 303.193762 207.396667 
L 304.812788 207.631518 
L 306.431814 207.664424 
L 308.282129 207.473304 
L 310.132444 207.060916 
L 312.214048 206.36433 
L 314.526942 205.346774 
L 317.302414 203.862694 
L 321.003044 201.597419 
L 323.084649 200.256523 
L 323.084649 200.256523 
" clip-path="url(#p616aff8ac7)" style="fill: none; stroke: #eda100; stroke-width: 1.3; stroke-linecap: square"/>
   </g>
   <g id="line2d_30">
    <path d="M 36.054531 145.721178 
L 39.292583 120.34086 
L 40.911608 109.25987 
L 42.299344 101.15252 
L 43.455791 95.548894 
L 44.612238 91.074428 
L 45.537396 88.325807 
L 46.462553 86.30596 
L 47.156421 85.252222 
L 47.85029 84.573064 
L 48.544158 84.244311 
L 49.238026 84.237288 
L 49.931894 84.519482 
L 50.625762 85.055271 
L 51.55092 86.098289 
L 52.707366 87.797723 
L 54.788971 91.407101 
L 56.870575 94.883865 
L 58.027022 96.460599 
L 59.183469 97.661495 
L 60.108627 98.313426 
L 61.033784 98.677183 
L 61.958942 98.755145 
L 62.884099 98.562772 
L 63.809257 98.127087 
L 64.965703 97.296957 
L 66.35344 95.999217 
L 70.979227 91.407755 
L 72.135674 90.647859 
L 73.292121 90.162414 
L 74.217279 89.987201 
L 75.142436 90.002522 
L 76.298883 90.275291 
L 77.45533 90.795745 
L 78.843066 91.672466 
L 81.387249 93.625343 
L 83.468854 95.110896 
L 84.85659 95.849145 
L 86.013037 96.245316 
L 87.169484 96.416981 
L 88.325931 96.359249 
L 89.482377 96.084974 
L 90.870114 95.511803 
L 92.720429 94.460767 
L 96.652348 92.119278 
L 98.040084 91.562265 
L 99.427821 91.252354 
L 100.584268 91.203006 
L 101.972004 91.39279 
L 103.35974 91.825181 
L 105.210055 92.680197 
L 110.067132 95.118914 
L 111.454868 95.523513 
L 112.842605 95.699551 
L 114.230341 95.632313 
L 115.618077 95.334537 
L 117.237103 94.747941 
L 119.781286 93.536704 
L 122.325469 92.382019 
L 123.944495 91.876839 
L 125.332231 91.658613 
L 126.719967 91.662647 
L 128.107704 91.885459 
L 129.726729 92.383376 
L 132.039623 93.379401 
L 135.277674 94.779404 
L 136.8967 95.24327 
L 138.284436 95.435527 
L 139.672172 95.415734 
L 141.059909 95.187523 
L 142.678934 94.695167 
L 144.991828 93.723838 
L 148.229879 92.373707 
L 149.848905 91.934385 
L 151.236641 91.760652 
L 152.624378 91.795843 
L 154.012114 92.035981 
L 155.631139 92.537797 
L 157.944033 93.51462 
L 160.950795 94.77798 
L 162.569821 95.239156 
L 163.957557 95.433904 
L 165.345293 95.417952 
L 166.73303 95.191703 
L 168.352055 94.695526 
L 170.664949 93.702884 
L 173.903 92.299073 
L 175.522026 91.834032 
L 176.909762 91.646374 
L 178.297498 91.679828 
L 179.685235 91.933649 
L 181.30426 92.472557 
L 183.385865 93.422259 
L 186.855205 95.02589 
L 188.474231 95.510408 
L 189.861967 95.69618 
L 191.249704 95.641668 
L 192.63744 95.347799 
L 194.256465 94.741527 
L 196.33807 93.684949 
L 199.576121 92.014257 
L 201.195147 91.449215 
L 202.582883 91.216178 
L 203.73933 91.227051 
L 204.895777 91.429557 
L 206.283513 91.909041 
L 207.902539 92.732719 
L 213.684773 96.006428 
L 214.84122 96.321008 
L 215.997667 96.423624 
L 217.154114 96.298028 
L 218.310561 95.945494 
L 219.698297 95.251399 
L 221.317323 94.154731 
L 225.94311 90.795745 
L 227.099557 90.275291 
L 228.256004 90.002522 
L 229.181161 89.987201 
L 230.106319 90.162414 
L 231.031476 90.527772 
L 232.187923 91.235661 
L 233.57566 92.397051 
L 235.425975 94.285492 
L 237.970158 96.893786 
L 239.357894 97.984266 
L 240.283052 98.475377 
L 241.208209 98.731524 
L 242.133367 98.723076 
L 243.058524 98.431524 
L 243.983682 97.8511 
L 244.908839 96.989941 
L 246.065286 95.554656 
L 247.453022 93.411315 
L 252.07881 85.806694 
L 253.003967 84.850802 
L 253.697835 84.395426 
L 254.391704 84.205817 
L 255.085572 84.316646 
L 255.77944 84.759224 
L 256.473308 85.560796 
L 257.167176 86.743901 
L 257.861044 88.325807 
L 258.786202 91.074428 
L 259.711359 94.562173 
L 260.867806 99.944304 
L 262.024253 106.400362 
L 263.411989 115.403937 
L 265.262304 129.070201 
L 271.969696 180.697693 
L 273.357433 189.039258 
L 274.513879 194.861414 
L 275.670326 199.56525 
L 276.595484 202.49846 
L 277.520641 204.698455 
L 278.21451 205.88156 
L 278.908378 206.683133 
L 279.602246 207.12571 
L 280.296114 207.236539 
L 280.989982 207.046931 
L 281.68385 206.591555 
L 282.609008 205.635662 
L 283.765455 204.011736 
L 285.38448 201.269712 
L 288.159953 196.558492 
L 289.3164 194.981757 
L 290.472847 193.780862 
L 291.398004 193.12893 
L 292.323162 192.765173 
L 293.248319 192.687211 
L 294.173477 192.879585 
L 295.098634 193.315269 
L 296.255081 194.145399 
L 297.642817 195.44314 
L 302.268605 200.034601 
L 303.425052 200.794497 
L 304.581499 201.279943 
L 305.506656 201.455155 
L 306.431814 201.439834 
L 307.58826 201.167065 
L 308.744707 200.646611 
L 310.132444 199.76989 
L 312.676627 197.817013 
L 314.758231 196.33146 
L 316.145967 195.593212 
L 317.302414 195.19704 
L 318.458861 195.025376 
L 319.615308 195.083108 
L 320.771755 195.357383 
L 322.159491 195.930553 
L 323.084649 196.426228 
L 323.084649 196.426228 
" clip-path="url(#p616aff8ac7)" style="fill: none; stroke: #1baf7a; stroke-width: 1.3; stroke-linecap: square"/>
   </g>
   <g id="line2d_31">
    <path d="M 36.054531 145.721178 
L 36.979689 108.13886 
L 37.442268 94.910225 
L 37.904846 86.994782 
L 38.136136 85.033957 
L 38.367425 84.275515 
L 38.598714 84.554547 
L 38.830004 85.666319 
L 39.292583 89.460093 
L 39.986451 95.673849 
L 40.449029 98.144317 
L 40.680319 98.61472 
L 40.911608 98.57111 
L 41.142898 98.065177 
L 41.605476 96.037308 
L 42.530634 91.276338 
L 42.993213 90.194443 
L 43.224502 90.156022 
L 43.455791 90.43897 
L 43.91837 91.765027 
L 44.843528 95.225003 
L 45.306106 96.119924 
L 45.537396 96.200026 
L 45.768685 96.03359 
L 46.231264 95.087103 
L 47.387711 91.889634 
L 47.619 91.58677 
L 47.85029 91.481563 
L 48.081579 91.576102 
L 48.544158 92.283157 
L 49.931894 95.223122 
L 50.163183 95.344954 
L 50.394473 95.299349 
L 50.857051 94.758125 
L 52.244788 92.218034 
L 52.476077 92.084544 
L 52.707366 92.094632 
L 53.169945 92.513532 
L 54.788971 94.892807 
L 55.02026 94.909678 
L 55.482839 94.585194 
L 56.176707 93.530181 
L 56.870575 92.58746 
L 57.333154 92.401242 
L 57.795733 92.650332 
L 58.489601 93.571992 
L 59.183469 94.451856 
L 59.646048 94.6597 
L 60.108627 94.472418 
L 60.802495 93.661982 
L 61.496363 92.836047 
L 61.958942 92.610903 
L 62.42152 92.746452 
L 62.884099 93.181711 
L 63.809257 94.24066 
L 64.271835 94.479747 
L 64.734414 94.38822 
L 65.196993 94.009244 
L 66.35344 92.858304 
L 66.816018 92.756193 
L 67.278597 92.958237 
L 68.203755 93.870085 
L 68.666333 94.241747 
L 69.128912 94.366152 
L 69.591491 94.204609 
L 70.285359 93.592966 
L 70.979227 92.999304 
L 71.441806 92.855697 
L 71.904385 92.981208 
L 72.598253 93.538083 
L 73.292121 94.114243 
L 73.7547 94.274456 
L 74.217279 94.181262 
L 74.911147 93.674637 
L 75.836304 93.000315 
L 76.298883 92.942943 
L 76.761462 93.121105 
L 78.380487 94.194238 
L 78.843066 94.156722 
L 79.536934 93.739855 
L 80.462092 93.092207 
L 80.92467 92.995907 
L 81.387249 93.116671 
L 82.312407 93.757408 
L 83.006275 94.121891 
L 83.468854 94.130667 
L 83.931432 93.941208 
L 85.319169 93.086327 
L 85.781747 93.057239 
L 86.244326 93.221813 
L 87.863352 94.103444 
L 88.325931 94.054121 
L 89.019799 93.686106 
L 89.944956 93.150788 
L 90.407535 93.085798 
L 90.870114 93.204652 
L 92.720429 94.073548 
L 93.183007 93.975792 
L 94.108165 93.447099 
L 94.802033 93.142755 
L 95.264612 93.133687 
L 95.95848 93.414189 
L 97.114927 94.00791 
L 97.577506 94.034108 
L 98.271374 93.780989 
L 99.427821 93.189817 
L 99.890399 93.147516 
L 100.584268 93.374023 
L 101.740714 93.961089 
L 102.203293 94.018528 
L 102.897161 93.817917 
L 104.284898 93.181438 
L 104.747476 93.187811 
L 105.441345 93.454849 
L 106.597791 93.975518 
L 107.06037 93.98501 
L 107.754238 93.740477 
L 108.910685 93.216407 
L 109.373264 93.191759 
L 110.067132 93.41403 
L 111.223579 93.939848 
L 111.917447 93.943332 
L 112.611315 93.665438 
L 113.536473 93.25275 
L 114.230341 93.22759 
L 114.924209 93.486778 
L 116.080656 93.953196 
L 116.774524 93.894851 
L 118.856128 93.224295 
L 119.549997 93.445738 
L 120.706443 93.926014 
L 121.400312 93.910577 
L 122.325469 93.526645 
L 123.019337 93.262735 
L 123.713205 93.257524 
L 124.638363 93.624399 
L 125.56352 93.938244 
L 126.257388 93.865282 
L 128.107704 93.230356 
L 128.801572 93.375317 
L 130.420597 93.939912 
L 131.114465 93.814194 
L 132.733491 93.23929 
L 133.427359 93.345746 
L 135.277674 93.93145 
L 135.971542 93.758532 
L 137.359279 93.251929 
L 138.053147 93.319872 
L 140.134751 93.913375 
L 140.828619 93.699534 
L 141.985066 93.268127 
L 142.678934 93.297684 
L 143.604092 93.661076 
L 144.29796 93.896742 
L 144.991828 93.886287 
L 145.916986 93.534262 
L 146.842143 93.253419 
L 147.536011 93.336852 
L 149.386326 93.92527 
L 150.080194 93.774045 
L 151.467931 93.264421 
L 152.161799 93.310698 
L 154.243403 93.915816 
L 154.937271 93.719651 
L 156.093718 93.279191 
L 156.787586 93.287755 
L 157.712744 93.638453 
L 158.637901 93.92131 
L 159.331769 93.839423 
L 161.182084 93.246241 
L 161.875953 93.397142 
L 163.263689 93.913375 
L 163.957557 93.86835 
L 166.039161 93.251929 
L 166.73303 93.450461 
L 167.889476 93.901431 
L 168.583345 93.894571 
L 169.508502 93.536033 
L 170.43366 93.243671 
L 171.127528 93.32612 
L 172.977843 93.939912 
L 173.671711 93.785351 
L 175.059447 93.24848 
L 175.753315 93.293386 
L 176.909762 93.782762 
L 177.60363 93.946932 
L 178.297498 93.825474 
L 179.916524 93.225293 
L 180.610392 93.329056 
L 182.460707 93.955334 
L 183.154575 93.777055 
L 184.542312 93.224295 
L 185.23618 93.290344 
L 187.317784 93.953196 
L 188.011652 93.719915 
L 189.168099 93.22759 
L 189.861967 93.25275 
L 190.787125 93.665438 
L 191.480993 93.943332 
L 192.174861 93.939848 
L 192.868729 93.654534 
L 193.793887 93.235451 
L 194.487755 93.216407 
L 195.181623 93.493427 
L 196.10678 93.933064 
L 196.800649 93.975518 
L 197.494517 93.70798 
L 198.650964 93.187811 
L 199.113542 93.181438 
L 199.807411 93.438252 
L 200.963857 93.986778 
L 201.426436 94.009758 
L 202.120304 93.764968 
L 203.276751 93.188323 
L 203.73933 93.147954 
L 204.433198 93.379349 
L 205.820934 94.034108 
L 206.283513 94.00791 
L 206.977381 93.695202 
L 207.902539 93.193744 
L 208.365118 93.11605 
L 208.827696 93.211554 
L 209.752854 93.737378 
L 210.446722 94.0461 
L 210.909301 94.055266 
L 211.603169 93.760747 
L 212.759616 93.123627 
L 213.222194 93.095033 
L 213.684773 93.248128 
L 215.303799 94.102956 
L 215.766378 94.055181 
L 216.460246 93.680219 
L 217.385403 93.117767 
L 217.847982 93.046283 
L 218.310561 93.173994 
L 219.235718 93.792517 
L 219.929586 94.130667 
L 220.392165 94.121891 
L 220.854744 93.914762 
L 222.24248 93.030366 
L 222.705059 93.017018 
L 223.167638 93.214866 
L 224.786663 94.204433 
L 225.249242 94.126539 
L 225.94311 93.660474 
L 226.868268 93.005095 
L 227.330846 92.941082 
L 227.793425 93.115684 
L 229.64374 94.274456 
L 230.106319 94.114243 
L 230.800187 93.538083 
L 231.494055 92.981208 
L 231.956634 92.855697 
L 232.419213 92.999304 
L 233.113081 93.592966 
L 233.806949 94.204609 
L 234.269528 94.366152 
L 234.732107 94.241747 
L 235.425975 93.630133 
L 236.119843 92.958237 
L 236.582422 92.756193 
L 237.045 92.858304 
L 237.507579 93.235328 
L 238.664026 94.38822 
L 239.126605 94.479747 
L 239.589183 94.24066 
L 240.283052 93.462087 
L 240.97692 92.746452 
L 241.439498 92.610903 
L 241.902077 92.836047 
L 242.595945 93.661982 
L 243.289814 94.472418 
L 243.752392 94.6597 
L 244.214971 94.451856 
L 244.67755 93.911305 
L 245.602707 92.650332 
L 246.065286 92.401242 
L 246.527865 92.58746 
L 246.990444 93.15811 
L 247.915601 94.585194 
L 248.37818 94.909678 
L 248.609469 94.892807 
L 249.072048 94.494255 
L 249.765916 93.296457 
L 250.459784 92.243468 
L 250.691074 92.094632 
L 250.922363 92.084544 
L 251.153652 92.218034 
L 251.616231 92.868021 
L 252.772678 95.095822 
L 253.003967 95.299349 
L 253.235257 95.344954 
L 253.466546 95.223122 
L 253.929125 94.51704 
L 255.316861 91.576102 
L 255.548151 91.481563 
L 255.77944 91.58677 
L 256.242019 92.369175 
L 257.629755 96.03359 
L 257.861044 96.200026 
L 258.092334 96.119924 
L 258.323623 95.788589 
L 258.786202 94.471245 
L 259.942649 90.43897 
L 260.173938 90.156022 
L 260.405227 90.194443 
L 260.636517 90.572222 
L 261.099096 92.26184 
L 262.255542 98.065177 
L 262.486832 98.57111 
L 262.718121 98.61472 
L 262.949411 98.144317 
L 263.411989 95.673849 
L 264.799726 84.554547 
L 265.031015 84.275515 
L 265.262304 85.033957 
L 265.493594 86.994782 
L 265.956173 94.910225 
L 266.418751 108.13886 
L 267.112619 135.556556 
L 268.269066 183.303497 
L 268.731645 196.532131 
L 269.194224 204.447575 
L 269.425513 206.408399 
L 269.656803 207.166841 
L 269.888092 206.88781 
L 270.119381 205.776037 
L 270.58196 201.982264 
L 271.275828 195.768507 
L 271.738407 193.298039 
L 271.969696 192.827636 
L 272.200986 192.871247 
L 272.432275 193.377179 
L 272.894854 195.405048 
L 273.820011 200.166018 
L 274.28259 201.247914 
L 274.513879 201.286335 
L 274.745169 201.003387 
L 275.207748 199.677329 
L 276.132905 196.217353 
L 276.595484 195.322433 
L 276.826773 195.24233 
L 277.058063 195.408767 
L 277.520641 196.355254 
L 278.677088 199.552722 
L 278.908378 199.855586 
L 279.139667 199.960793 
L 279.370956 199.866254 
L 279.833535 199.159199 
L 281.221271 196.219235 
L 281.452561 196.097403 
L 281.68385 196.143007 
L 282.146429 196.684231 
L 283.534165 199.224323 
L 283.765455 199.357812 
L 283.996744 199.347724 
L 284.459323 198.928824 
L 286.078348 196.549549 
L 286.309638 196.532679 
L 286.772216 196.857163 
L 287.466085 197.912175 
L 288.159953 198.854896 
L 288.622532 199.041114 
L 289.08511 198.792024 
L 289.778978 197.870364 
L 290.472847 196.9905 
L 290.935425 196.782657 
L 291.398004 196.969938 
L 292.091872 197.780374 
L 292.78574 198.60631 
L 293.248319 198.831453 
L 293.710898 198.695904 
L 294.173477 198.260646 
L 295.098634 197.201697 
L 295.561213 196.962609 
L 296.023792 197.054136 
L 296.48637 197.433113 
L 297.642817 198.584053 
L 298.105396 198.686163 
L 298.567975 198.48412 
L 299.493132 197.572272 
L 299.955711 197.200609 
L 300.41829 197.076205 
L 300.880869 197.237748 
L 301.574737 197.849391 
L 302.268605 198.443052 
L 302.731184 198.586659 
L 303.193762 198.461148 
L 303.88763 197.904273 
L 304.581499 197.328114 
L 305.044077 197.167901 
L 305.506656 197.261095 
L 306.200524 197.767719 
L 307.125682 198.442041 
L 307.58826 198.499413 
L 308.050839 198.321252 
L 309.669865 197.248118 
L 310.132444 197.285634 
L 310.826312 197.702502 
L 311.751469 198.35015 
L 312.214048 198.446449 
L 312.676627 198.325685 
L 313.601784 197.684948 
L 314.295652 197.320466 
L 314.758231 197.311689 
L 315.22081 197.501148 
L 316.608546 198.35603 
L 317.071125 198.385118 
L 317.533704 198.220544 
L 319.152729 197.338912 
L 319.615308 197.388235 
L 320.309176 197.75625 
L 321.234334 198.291568 
L 321.696912 198.356558 
L 322.159491 198.237705 
L 323.084649 197.681609 
L 323.084649 197.681609 
" clip-path="url(#p616aff8ac7)" style="fill: none; stroke: #e34948; stroke-width: 1.3; stroke-linecap: square"/>
   </g>
   <g id="patch_3">
    <path d="M 36.054531 221.315547 
L 36.054531 59.7 
" style="fill: none; stroke: #c3c2b7; stroke-width: 0.8; stroke-linejoin: miter; stroke-linecap: square"/>
   </g>
   <g id="patch_4">
    <path d="M 36.054531 221.315547 
L 322.853359 221.315547 
" style="fill: none; stroke: #c3c2b7; stroke-width: 0.8; stroke-linejoin: miter; stroke-linecap: square"/>
   </g>
   <g id="text_15">
    <!-- adding odd harmonics, one at a time -->
    <g transform="translate(36.054531 53.7) scale(0.12 -0.12)">
     <defs>
      <path id="DejaVuSans-44" d="M 2194 1759 
Q 1497 1759 1228 1600 
Q 959 1441 959 1056 
Q 959 750 1161 570 
Q 1363 391 1709 391 
Q 2188 391 2477 730 
Q 2766 1069 2766 1631 
L 2766 1759 
L 2194 1759 
z
M 3341 1997 
L 3341 0 
L 2766 0 
L 2766 531 
Q 2569 213 2275 61 
Q 1981 -91 1556 -91 
Q 1019 -91 701 211 
Q 384 513 384 1019 
Q 384 1609 779 1909 
Q 1175 2209 1959 2209 
L 2766 2209 
L 2766 2266 
Q 2766 2663 2505 2880 
Q 2244 3097 1772 3097 
Q 1472 3097 1187 3025 
Q 903 2953 641 2809 
L 641 3341 
Q 956 3463 1253 3523 
Q 1550 3584 1831 3584 
Q 2591 3584 2966 3190 
Q 3341 2797 3341 1997 
z
" transform="scale(0.015625)"/>
      <path id="DejaVuSans-47" d="M 2906 2969 
L 2906 4863 
L 3481 4863 
L 3481 0 
L 2906 0 
L 2906 525 
Q 2725 213 2448 61 
Q 2172 -91 1784 -91 
Q 1150 -91 751 415 
Q 353 922 353 1747 
Q 353 2572 751 3078 
Q 1150 3584 1784 3584 
Q 2172 3584 2448 3432 
Q 2725 3281 2906 2969 
z
M 947 1747 
Q 947 1113 1208 752 
Q 1469 391 1925 391 
Q 2381 391 2643 752 
Q 2906 1113 2906 1747 
Q 2906 2381 2643 2742 
Q 2381 3103 1925 3103 
Q 1469 3103 1208 2742 
Q 947 2381 947 1747 
z
" transform="scale(0.015625)"/>
      <path id="DejaVuSans-51" d="M 3513 2113 
L 3513 0 
L 2938 0 
L 2938 2094 
Q 2938 2591 2744 2837 
Q 2550 3084 2163 3084 
Q 1697 3084 1428 2787 
Q 1159 2491 1159 1978 
L 1159 0 
L 581 0 
L 581 3500 
L 1159 3500 
L 1159 2956 
Q 1366 3272 1645 3428 
Q 1925 3584 2291 3584 
Q 2894 3584 3203 3211 
Q 3513 2838 3513 2113 
z
" transform="scale(0.015625)"/>
      <path id="DejaVuSans-4a" d="M 2906 1791 
Q 2906 2416 2648 2759 
Q 2391 3103 1925 3103 
Q 1463 3103 1205 2759 
Q 947 2416 947 1791 
Q 947 1169 1205 825 
Q 1463 481 1925 481 
Q 2391 481 2648 825 
Q 2906 1169 2906 1791 
z
M 3481 434 
Q 3481 -459 3084 -895 
Q 2688 -1331 1869 -1331 
Q 1566 -1331 1297 -1286 
Q 1028 -1241 775 -1147 
L 775 -588 
Q 1028 -725 1275 -790 
Q 1522 -856 1778 -856 
Q 2344 -856 2625 -561 
Q 2906 -266 2906 331 
L 2906 616 
Q 2728 306 2450 153 
Q 2172 0 1784 0 
Q 1141 0 747 490 
Q 353 981 353 1791 
Q 353 2603 747 3093 
Q 1141 3584 1784 3584 
Q 2172 3584 2450 3431 
Q 2728 3278 2906 2969 
L 2906 3500 
L 3481 3500 
L 3481 434 
z
" transform="scale(0.015625)"/>
      <path id="DejaVuSans-3" transform="scale(0.015625)"/>
      <path id="DejaVuSans-52" d="M 1959 3097 
Q 1497 3097 1228 2736 
Q 959 2375 959 1747 
Q 959 1119 1226 758 
Q 1494 397 1959 397 
Q 2419 397 2687 759 
Q 2956 1122 2956 1747 
Q 2956 2369 2687 2733 
Q 2419 3097 1959 3097 
z
M 1959 3584 
Q 2709 3584 3137 3096 
Q 3566 2609 3566 1747 
Q 3566 888 3137 398 
Q 2709 -91 1959 -91 
Q 1206 -91 779 398 
Q 353 888 353 1747 
Q 353 2609 779 3096 
Q 1206 3584 1959 3584 
z
" transform="scale(0.015625)"/>
      <path id="DejaVuSans-4b" d="M 3513 2113 
L 3513 0 
L 2938 0 
L 2938 2094 
Q 2938 2591 2744 2837 
Q 2550 3084 2163 3084 
Q 1697 3084 1428 2787 
Q 1159 2491 1159 1978 
L 1159 0 
L 581 0 
L 581 4863 
L 1159 4863 
L 1159 2956 
Q 1366 3272 1645 3428 
Q 1925 3584 2291 3584 
Q 2894 3584 3203 3211 
Q 3513 2838 3513 2113 
z
" transform="scale(0.015625)"/>
      <path id="DejaVuSans-55" d="M 2631 2963 
Q 2534 3019 2420 3045 
Q 2306 3072 2169 3072 
Q 1681 3072 1420 2755 
Q 1159 2438 1159 1844 
L 1159 0 
L 581 0 
L 581 3500 
L 1159 3500 
L 1159 2956 
Q 1341 3275 1631 3429 
Q 1922 3584 2338 3584 
Q 2397 3584 2469 3576 
Q 2541 3569 2628 3553 
L 2631 2963 
z
" transform="scale(0.015625)"/>
      <path id="DejaVuSans-46" d="M 3122 3366 
L 3122 2828 
Q 2878 2963 2633 3030 
Q 2388 3097 2138 3097 
Q 1578 3097 1268 2742 
Q 959 2388 959 1747 
Q 959 1106 1268 751 
Q 1578 397 2138 397 
Q 2388 397 2633 464 
Q 2878 531 3122 666 
L 3122 134 
Q 2881 22 2623 -34 
Q 2366 -91 2075 -91 
Q 1284 -91 818 406 
Q 353 903 353 1747 
Q 353 2603 823 3093 
Q 1294 3584 2113 3584 
Q 2378 3584 2631 3529 
Q 2884 3475 3122 3366 
z
" transform="scale(0.015625)"/>
      <path id="DejaVuSans-56" d="M 2834 3397 
L 2834 2853 
Q 2591 2978 2328 3040 
Q 2066 3103 1784 3103 
Q 1356 3103 1142 2972 
Q 928 2841 928 2578 
Q 928 2378 1081 2264 
Q 1234 2150 1697 2047 
L 1894 2003 
Q 2506 1872 2764 1633 
Q 3022 1394 3022 966 
Q 3022 478 2636 193 
Q 2250 -91 1575 -91 
Q 1294 -91 989 -36 
Q 684 19 347 128 
L 347 722 
Q 666 556 975 473 
Q 1284 391 1588 391 
Q 1994 391 2212 530 
Q 2431 669 2431 922 
Q 2431 1156 2273 1281 
Q 2116 1406 1581 1522 
L 1381 1569 
Q 847 1681 609 1914 
Q 372 2147 372 2553 
Q 372 3047 722 3315 
Q 1072 3584 1716 3584 
Q 2034 3584 2315 3537 
Q 2597 3491 2834 3397 
z
" transform="scale(0.015625)"/>
      <path id="DejaVuSans-f" d="M 750 794 
L 1409 794 
L 1409 256 
L 897 -744 
L 494 -744 
L 750 256 
L 750 794 
z
" transform="scale(0.015625)"/>
     </defs>
     <use xlink:href="#DejaVuSans-44"/>
     <use xlink:href="#DejaVuSans-47" transform="translate(61.28125 0)"/>
     <use xlink:href="#DejaVuSans-47" transform="translate(124.765625 0)"/>
     <use xlink:href="#DejaVuSans-4c" transform="translate(188.25 0)"/>
     <use xlink:href="#DejaVuSans-51" transform="translate(216.03125 0)"/>
     <use xlink:href="#DejaVuSans-4a" transform="translate(279.40625 0)"/>
     <use xlink:href="#DejaVuSans-3" transform="translate(342.890625 0)"/>
     <use xlink:href="#DejaVuSans-52" transform="translate(374.671875 0)"/>
     <use xlink:href="#DejaVuSans-47" transform="translate(435.859375 0)"/>
     <use xlink:href="#DejaVuSans-47" transform="translate(499.34375 0)"/>
     <use xlink:href="#DejaVuSans-3" transform="translate(562.828125 0)"/>
     <use xlink:href="#DejaVuSans-4b" transform="translate(594.609375 0)"/>
     <use xlink:href="#DejaVuSans-44" transform="translate(657.984375 0)"/>
     <use xlink:href="#DejaVuSans-55" transform="translate(719.265625 0)"/>
     <use xlink:href="#DejaVuSans-50" transform="translate(758.625 0)"/>
     <use xlink:href="#DejaVuSans-52" transform="translate(856.03125 0)"/>
     <use xlink:href="#DejaVuSans-51" transform="translate(917.21875 0)"/>
     <use xlink:href="#DejaVuSans-4c" transform="translate(980.59375 0)"/>
     <use xlink:href="#DejaVuSans-46" transform="translate(1008.375 0)"/>
     <use xlink:href="#DejaVuSans-56" transform="translate(1063.359375 0)"/>
     <use xlink:href="#DejaVuSans-f" transform="translate(1115.453125 0)"/>
     <use xlink:href="#DejaVuSans-3" transform="translate(1147.234375 0)"/>
     <use xlink:href="#DejaVuSans-52" transform="translate(1179.015625 0)"/>
     <use xlink:href="#DejaVuSans-51" transform="translate(1240.203125 0)"/>
     <use xlink:href="#DejaVuSans-48" transform="translate(1303.578125 0)"/>
     <use xlink:href="#DejaVuSans-3" transform="translate(1365.109375 0)"/>
     <use xlink:href="#DejaVuSans-44" transform="translate(1396.890625 0)"/>
     <use xlink:href="#DejaVuSans-57" transform="translate(1458.171875 0)"/>
     <use xlink:href="#DejaVuSans-3" transform="translate(1497.375 0)"/>
     <use xlink:href="#DejaVuSans-44" transform="translate(1529.15625 0)"/>
     <use xlink:href="#DejaVuSans-3" transform="translate(1590.4375 0)"/>
     <use xlink:href="#DejaVuSans-57" transform="translate(1622.21875 0)"/>
     <use xlink:href="#DejaVuSans-4c" transform="translate(1661.421875 0)"/>
     <use xlink:href="#DejaVuSans-50" transform="translate(1689.203125 0)"/>
     <use xlink:href="#DejaVuSans-48" transform="translate(1786.609375 0)"/>
    </g>
   </g>
   <g id="legend_1">
    <g id="line2d_32">
     <path d="M 43.254531 185.392422 
L 51.254531 185.392422 
L 59.254531 185.392422 
" style="fill: none; stroke-dasharray: 1.4,2.31; stroke-dashoffset: 0; stroke: #898781; stroke-width: 1.4"/>
    </g>
    <g id="text_16">
     <!-- the square wave -->
     <g style="fill: #52514e" transform="translate(65.654531 188.192422) scale(0.08 -0.08)">
      <defs>
       <path id="DejaVuSans-54" d="M 947 1747 
Q 947 1113 1208 752 
Q 1469 391 1925 391 
Q 2381 391 2643 752 
Q 2906 1113 2906 1747 
Q 2906 2381 2643 2742 
Q 2381 3103 1925 3103 
Q 1469 3103 1208 2742 
Q 947 2381 947 1747 
z
M 2906 525 
Q 2725 213 2448 61 
Q 2172 -91 1784 -91 
Q 1150 -91 751 415 
Q 353 922 353 1747 
Q 353 2572 751 3078 
Q 1150 3584 1784 3584 
Q 2172 3584 2448 3432 
Q 2725 3281 2906 2969 
L 2906 3500 
L 3481 3500 
L 3481 -1331 
L 2906 -1331 
L 2906 525 
z
" transform="scale(0.015625)"/>
       <path id="DejaVuSans-58" d="M 544 1381 
L 544 3500 
L 1119 3500 
L 1119 1403 
Q 1119 906 1312 657 
Q 1506 409 1894 409 
Q 2359 409 2629 706 
Q 2900 1003 2900 1516 
L 2900 3500 
L 3475 3500 
L 3475 0 
L 2900 0 
L 2900 538 
Q 2691 219 2414 64 
Q 2138 -91 1772 -91 
Q 1169 -91 856 284 
Q 544 659 544 1381 
z
M 1991 3584 
L 1991 3584 
z
" transform="scale(0.015625)"/>
       <path id="DejaVuSans-5a" d="M 269 3500 
L 844 3500 
L 1563 769 
L 2278 3500 
L 2956 3500 
L 3675 769 
L 4391 3500 
L 4966 3500 
L 4050 0 
L 3372 0 
L 2619 2869 
L 1863 0 
L 1184 0 
L 269 3500 
z
" transform="scale(0.015625)"/>
       <path id="DejaVuSans-59" d="M 191 3500 
L 800 3500 
L 1894 563 
L 2988 3500 
L 3597 3500 
L 2284 0 
L 1503 0 
L 191 3500 
z
" transform="scale(0.015625)"/>
      </defs>
      <use xlink:href="#DejaVuSans-57"/>
      <use xlink:href="#DejaVuSans-4b" transform="translate(39.203125 0)"/>
      <use xlink:href="#DejaVuSans-48" transform="translate(102.578125 0)"/>
      <use xlink:href="#DejaVuSans-3" transform="translate(164.109375 0)"/>
      <use xlink:href="#DejaVuSans-56" transform="translate(195.890625 0)"/>
      <use xlink:href="#DejaVuSans-54" transform="translate(247.984375 0)"/>
      <use xlink:href="#DejaVuSans-58" transform="translate(311.46875 0)"/>
      <use xlink:href="#DejaVuSans-44" transform="translate(374.84375 0)"/>
      <use xlink:href="#DejaVuSans-55" transform="translate(436.125 0)"/>
      <use xlink:href="#DejaVuSans-48" transform="translate(475.03125 0)"/>
      <use xlink:href="#DejaVuSans-3" transform="translate(536.5625 0)"/>
      <use xlink:href="#DejaVuSans-5a" transform="translate(568.34375 0)"/>
      <use xlink:href="#DejaVuSans-44" transform="translate(650.125 0)"/>
      <use xlink:href="#DejaVuSans-59" transform="translate(711.40625 0)"/>
      <use xlink:href="#DejaVuSans-48" transform="translate(770.59375 0)"/>
     </g>
    </g>
    <g id="line2d_33">
     <path d="M 43.254531 197.393047 
L 51.254531 197.393047 
L 59.254531 197.393047 
" style="fill: none; stroke: #2a78d6; stroke-width: 1.3; stroke-linecap: square"/>
    </g>
    <g id="text_17">
     <!-- 1 harmonic -->
     <g style="fill: #52514e" transform="translate(65.654531 200.193047) scale(0.08 -0.08)">
      <use xlink:href="#DejaVuSans-14"/>
      <use xlink:href="#DejaVuSans-3" transform="translate(63.625 0)"/>
      <use xlink:href="#DejaVuSans-4b" transform="translate(95.40625 0)"/>
      <use xlink:href="#DejaVuSans-44" transform="translate(158.78125 0)"/>
      <use xlink:href="#DejaVuSans-55" transform="translate(220.0625 0)"/>
      <use xlink:href="#DejaVuSans-50" transform="translate(259.421875 0)"/>
      <use xlink:href="#DejaVuSans-52" transform="translate(356.828125 0)"/>
      <use xlink:href="#DejaVuSans-51" transform="translate(418.015625 0)"/>
      <use xlink:href="#DejaVuSans-4c" transform="translate(481.390625 0)"/>
      <use xlink:href="#DejaVuSans-46" transform="translate(509.171875 0)"/>
     </g>
    </g>
    <g id="line2d_34">
     <path d="M 43.254531 209.393672 
L 51.254531 209.393672 
L 59.254531 209.393672 
" style="fill: none; stroke: #eda100; stroke-width: 1.3; stroke-linecap: square"/>
    </g>
    <g id="text_18">
     <!-- 3 harmonics -->
     <g style="fill: #52514e" transform="translate(65.654531 212.193672) scale(0.08 -0.08)">
      <use xlink:href="#DejaVuSans-16"/>
      <use xlink:href="#DejaVuSans-3" transform="translate(63.625 0)"/>
      <use xlink:href="#DejaVuSans-4b" transform="translate(95.40625 0)"/>
      <use xlink:href="#DejaVuSans-44" transform="translate(158.78125 0)"/>
      <use xlink:href="#DejaVuSans-55" transform="translate(220.0625 0)"/>
      <use xlink:href="#DejaVuSans-50" transform="translate(259.421875 0)"/>
      <use xlink:href="#DejaVuSans-52" transform="translate(356.828125 0)"/>
      <use xlink:href="#DejaVuSans-51" transform="translate(418.015625 0)"/>
      <use xlink:href="#DejaVuSans-4c" transform="translate(481.390625 0)"/>
      <use xlink:href="#DejaVuSans-46" transform="translate(509.171875 0)"/>
      <use xlink:href="#DejaVuSans-56" transform="translate(564.15625 0)"/>
     </g>
    </g>
    <g id="line2d_35">
     <path d="M 148.224531 185.392422 
L 156.224531 185.392422 
L 164.224531 185.392422 
" style="fill: none; stroke: #1baf7a; stroke-width: 1.3; stroke-linecap: square"/>
    </g>
    <g id="text_19">
     <!-- 9 harmonics -->
     <g style="fill: #52514e" transform="translate(170.624531 188.192422) scale(0.08 -0.08)">
      <defs>
       <path id="DejaVuSans-1c" d="M 703 97 
L 703 672 
Q 941 559 1184 500 
Q 1428 441 1663 441 
Q 2288 441 2617 861 
Q 2947 1281 2994 2138 
Q 2813 1869 2534 1725 
Q 2256 1581 1919 1581 
Q 1219 1581 811 2004 
Q 403 2428 403 3163 
Q 403 3881 828 4315 
Q 1253 4750 1959 4750 
Q 2769 4750 3195 4129 
Q 3622 3509 3622 2328 
Q 3622 1225 3098 567 
Q 2575 -91 1691 -91 
Q 1453 -91 1209 -44 
Q 966 3 703 97 
z
M 1959 2075 
Q 2384 2075 2632 2365 
Q 2881 2656 2881 3163 
Q 2881 3666 2632 3958 
Q 2384 4250 1959 4250 
Q 1534 4250 1286 3958 
Q 1038 3666 1038 3163 
Q 1038 2656 1286 2365 
Q 1534 2075 1959 2075 
z
" transform="scale(0.015625)"/>
      </defs>
      <use xlink:href="#DejaVuSans-1c"/>
      <use xlink:href="#DejaVuSans-3" transform="translate(63.625 0)"/>
      <use xlink:href="#DejaVuSans-4b" transform="translate(95.40625 0)"/>
      <use xlink:href="#DejaVuSans-44" transform="translate(158.78125 0)"/>
      <use xlink:href="#DejaVuSans-55" transform="translate(220.0625 0)"/>
      <use xlink:href="#DejaVuSans-50" transform="translate(259.421875 0)"/>
      <use xlink:href="#DejaVuSans-52" transform="translate(356.828125 0)"/>
      <use xlink:href="#DejaVuSans-51" transform="translate(418.015625 0)"/>
      <use xlink:href="#DejaVuSans-4c" transform="translate(481.390625 0)"/>
      <use xlink:href="#DejaVuSans-46" transform="translate(509.171875 0)"/>
      <use xlink:href="#DejaVuSans-56" transform="translate(564.15625 0)"/>
     </g>
    </g>
    <g id="line2d_36">
     <path d="M 148.224531 197.393047 
L 156.224531 197.393047 
L 164.224531 197.393047 
" style="fill: none; stroke: #e34948; stroke-width: 1.3; stroke-linecap: square"/>
    </g>
    <g id="text_20">
     <!-- 49 harmonics -->
     <g style="fill: #52514e" transform="translate(170.624531 200.193047) scale(0.08 -0.08)">
      <use xlink:href="#DejaVuSans-17"/>
      <use xlink:href="#DejaVuSans-1c" transform="translate(63.625 0)"/>
      <use xlink:href="#DejaVuSans-3" transform="translate(127.25 0)"/>
      <use xlink:href="#DejaVuSans-4b" transform="translate(159.03125 0)"/>
      <use xlink:href="#DejaVuSans-44" transform="translate(222.40625 0)"/>
      <use xlink:href="#DejaVuSans-55" transform="translate(283.6875 0)"/>
      <use xlink:href="#DejaVuSans-50" transform="translate(323.046875 0)"/>
      <use xlink:href="#DejaVuSans-52" transform="translate(420.453125 0)"/>
      <use xlink:href="#DejaVuSans-51" transform="translate(481.640625 0)"/>
      <use xlink:href="#DejaVuSans-4c" transform="translate(545.015625 0)"/>
      <use xlink:href="#DejaVuSans-46" transform="translate(572.796875 0)"/>
      <use xlink:href="#DejaVuSans-56" transform="translate(627.78125 0)"/>
     </g>
    </g>
   </g>
  </g>
  <g id="axes_2">
   <g id="patch_5">
    <path d="M 375.135703 221.315547 
L 661.934531 221.315547 
L 661.934531 59.7 
L 375.135703 59.7 
L 375.135703 221.315547 
z
" style="fill: none"/>
   </g>
   <g id="matplotlib.axis_3">
    <g id="xtick_8">
     <g id="line2d_37">
      <path d="M 388.172013 221.315547 
L 388.172013 59.7 
" clip-path="url(#p68a7684310)" style="fill: none; stroke: #e1e0d9; stroke-opacity: 0.9; stroke-width: 0.6; stroke-linecap: square"/>
     </g>
     <g id="line2d_38">
      <g>
       <use xlink:href="#m2707b6f9ee" x="388.172013" y="221.315547" style="fill: #898781; stroke: #898781; stroke-width: 0.8"/>
      </g>
     </g>
     <g id="text_21">
      <!-- $\mathdefault{10^{0}}$ -->
      <g style="fill: #898781" transform="translate(380.252013 236.775547) scale(0.09 -0.09)">
       <use xlink:href="#DejaVuSans-14" transform="translate(0 0.746875)"/>
       <use xlink:href="#DejaVuSans-13" transform="translate(63.623047 0.746875)"/>
       <use xlink:href="#DejaVuSans-13" transform="translate(128.203125 42.046875) scale(0.7)"/>
      </g>
     </g>
    </g>
    <g id="xtick_9">
     <g id="line2d_39">
      <path d="M 484.37678 221.315547 
L 484.37678 59.7 
" clip-path="url(#p68a7684310)" style="fill: none; stroke: #e1e0d9; stroke-opacity: 0.9; stroke-width: 0.6; stroke-linecap: square"/>
     </g>
     <g id="line2d_40">
      <g>
       <use xlink:href="#m2707b6f9ee" x="484.37678" y="221.315547" style="fill: #898781; stroke: #898781; stroke-width: 0.8"/>
      </g>
     </g>
     <g id="text_22">
      <!-- $\mathdefault{10^{1}}$ -->
      <g style="fill: #898781" transform="translate(476.45678 236.685547) scale(0.09 -0.09)">
       <use xlink:href="#DejaVuSans-14" transform="translate(0 0.665625)"/>
       <use xlink:href="#DejaVuSans-13" transform="translate(63.623047 0.665625)"/>
       <use xlink:href="#DejaVuSans-14" transform="translate(128.203125 41.965625) scale(0.7)"/>
      </g>
     </g>
    </g>
    <g id="xtick_10">
     <g id="line2d_41">
      <path d="M 580.581546 221.315547 
L 580.581546 59.7 
" clip-path="url(#p68a7684310)" style="fill: none; stroke: #e1e0d9; stroke-opacity: 0.9; stroke-width: 0.6; stroke-linecap: square"/>
     </g>
     <g id="line2d_42">
      <g>
       <use xlink:href="#m2707b6f9ee" x="580.581546" y="221.315547" style="fill: #898781; stroke: #898781; stroke-width: 0.8"/>
      </g>
     </g>
     <g id="text_23">
      <!-- $\mathdefault{10^{2}}$ -->
      <g style="fill: #898781" transform="translate(572.661546 236.775547) scale(0.09 -0.09)">
       <use xlink:href="#DejaVuSans-14" transform="translate(0 0.746875)"/>
       <use xlink:href="#DejaVuSans-13" transform="translate(63.623047 0.746875)"/>
       <use xlink:href="#DejaVuSans-15" transform="translate(128.203125 42.046875) scale(0.7)"/>
      </g>
     </g>
    </g>
    <g id="xtick_11">
     <g id="line2d_43">
      <defs>
       <path id="mabfbea048c" d="M 0 0 
L 0 2 
" style="stroke: #000000; stroke-width: 0.6"/>
      </defs>
      <g>
       <use xlink:href="#mabfbea048c" x="378.848808" y="221.315547" style="stroke: #000000; stroke-width: 0.6"/>
      </g>
     </g>
    </g>
    <g id="xtick_12">
     <g id="line2d_44">
      <g>
       <use xlink:href="#mabfbea048c" x="383.769925" y="221.315547" style="stroke: #000000; stroke-width: 0.6"/>
      </g>
     </g>
    </g>
    <g id="xtick_13">
     <g id="line2d_45">
      <g>
       <use xlink:href="#mabfbea048c" x="417.132534" y="221.315547" style="stroke: #000000; stroke-width: 0.6"/>
      </g>
     </g>
    </g>
    <g id="xtick_14">
     <g id="line2d_46">
      <g>
       <use xlink:href="#mabfbea048c" x="434.073352" y="221.315547" style="stroke: #000000; stroke-width: 0.6"/>
      </g>
     </g>
    </g>
    <g id="xtick_15">
     <g id="line2d_47">
      <g>
       <use xlink:href="#mabfbea048c" x="446.093054" y="221.315547" style="stroke: #000000; stroke-width: 0.6"/>
      </g>
     </g>
    </g>
    <g id="xtick_16">
     <g id="line2d_48">
      <g>
       <use xlink:href="#mabfbea048c" x="455.416259" y="221.315547" style="stroke: #000000; stroke-width: 0.6"/>
      </g>
     </g>
    </g>
    <g id="xtick_17">
     <g id="line2d_49">
      <g>
       <use xlink:href="#mabfbea048c" x="463.033873" y="221.315547" style="stroke: #000000; stroke-width: 0.6"/>
      </g>
     </g>
    </g>
    <g id="xtick_18">
     <g id="line2d_50">
      <g>
       <use xlink:href="#mabfbea048c" x="469.474473" y="221.315547" style="stroke: #000000; stroke-width: 0.6"/>
      </g>
     </g>
    </g>
    <g id="xtick_19">
     <g id="line2d_51">
      <g>
       <use xlink:href="#mabfbea048c" x="475.053575" y="221.315547" style="stroke: #000000; stroke-width: 0.6"/>
      </g>
     </g>
    </g>
    <g id="xtick_20">
     <g id="line2d_52">
      <g>
       <use xlink:href="#mabfbea048c" x="479.974691" y="221.315547" style="stroke: #000000; stroke-width: 0.6"/>
      </g>
     </g>
    </g>
    <g id="xtick_21">
     <g id="line2d_53">
      <g>
       <use xlink:href="#mabfbea048c" x="513.3373" y="221.315547" style="stroke: #000000; stroke-width: 0.6"/>
      </g>
     </g>
    </g>
    <g id="xtick_22">
     <g id="line2d_54">
      <g>
       <use xlink:href="#mabfbea048c" x="530.278118" y="221.315547" style="stroke: #000000; stroke-width: 0.6"/>
      </g>
     </g>
    </g>
    <g id="xtick_23">
     <g id="line2d_55">
      <g>
       <use xlink:href="#mabfbea048c" x="542.29782" y="221.315547" style="stroke: #000000; stroke-width: 0.6"/>
      </g>
     </g>
    </g>
    <g id="xtick_24">
     <g id="line2d_56">
      <g>
       <use xlink:href="#mabfbea048c" x="551.621025" y="221.315547" style="stroke: #000000; stroke-width: 0.6"/>
      </g>
     </g>
    </g>
    <g id="xtick_25">
     <g id="line2d_57">
      <g>
       <use xlink:href="#mabfbea048c" x="559.238639" y="221.315547" style="stroke: #000000; stroke-width: 0.6"/>
      </g>
     </g>
    </g>
    <g id="xtick_26">
     <g id="line2d_58">
      <g>
       <use xlink:href="#mabfbea048c" x="565.679239" y="221.315547" style="stroke: #000000; stroke-width: 0.6"/>
      </g>
     </g>
    </g>
    <g id="xtick_27">
     <g id="line2d_59">
      <g>
       <use xlink:href="#mabfbea048c" x="571.258341" y="221.315547" style="stroke: #000000; stroke-width: 0.6"/>
      </g>
     </g>
    </g>
    <g id="xtick_28">
     <g id="line2d_60">
      <g>
       <use xlink:href="#mabfbea048c" x="576.179457" y="221.315547" style="stroke: #000000; stroke-width: 0.6"/>
      </g>
     </g>
    </g>
    <g id="xtick_29">
     <g id="line2d_61">
      <g>
       <use xlink:href="#mabfbea048c" x="609.542066" y="221.315547" style="stroke: #000000; stroke-width: 0.6"/>
      </g>
     </g>
    </g>
    <g id="xtick_30">
     <g id="line2d_62">
      <g>
       <use xlink:href="#mabfbea048c" x="626.482885" y="221.315547" style="stroke: #000000; stroke-width: 0.6"/>
      </g>
     </g>
    </g>
    <g id="xtick_31">
     <g id="line2d_63">
      <g>
       <use xlink:href="#mabfbea048c" x="638.502587" y="221.315547" style="stroke: #000000; stroke-width: 0.6"/>
      </g>
     </g>
    </g>
    <g id="xtick_32">
     <g id="line2d_64">
      <g>
       <use xlink:href="#mabfbea048c" x="647.825792" y="221.315547" style="stroke: #000000; stroke-width: 0.6"/>
      </g>
     </g>
    </g>
    <g id="xtick_33">
     <g id="line2d_65">
      <g>
       <use xlink:href="#mabfbea048c" x="655.443405" y="221.315547" style="stroke: #000000; stroke-width: 0.6"/>
      </g>
     </g>
    </g>
    <g id="xtick_34">
     <g id="line2d_66">
      <g>
       <use xlink:href="#mabfbea048c" x="661.884005" y="221.315547" style="stroke: #000000; stroke-width: 0.6"/>
      </g>
     </g>
    </g>
    <g id="text_24">
     <!-- harmonics used (log) -->
     <g style="fill: #52514e" transform="translate(465.766367 250.536094) scale(0.1 -0.1)">
      <defs>
       <path id="DejaVuSans-b" d="M 1984 4856 
Q 1566 4138 1362 3434 
Q 1159 2731 1159 2009 
Q 1159 1288 1364 580 
Q 1569 -128 1984 -844 
L 1484 -844 
Q 1016 -109 783 600 
Q 550 1309 550 2009 
Q 550 2706 781 3412 
Q 1013 4119 1484 4856 
L 1984 4856 
z
" transform="scale(0.015625)"/>
       <path id="DejaVuSans-4f" d="M 603 4863 
L 1178 4863 
L 1178 0 
L 603 0 
L 603 4863 
z
" transform="scale(0.015625)"/>
       <path id="DejaVuSans-c" d="M 513 4856 
L 1013 4856 
Q 1481 4119 1714 3412 
Q 1947 2706 1947 2009 
Q 1947 1309 1714 600 
Q 1481 -109 1013 -844 
L 513 -844 
Q 928 -128 1133 580 
Q 1338 1288 1338 2009 
Q 1338 2731 1133 3434 
Q 928 4138 513 4856 
z
" transform="scale(0.015625)"/>
      </defs>
      <use xlink:href="#DejaVuSans-4b"/>
      <use xlink:href="#DejaVuSans-44" transform="translate(63.375 0)"/>
      <use xlink:href="#DejaVuSans-55" transform="translate(124.65625 0)"/>
      <use xlink:href="#DejaVuSans-50" transform="translate(164.015625 0)"/>
      <use xlink:href="#DejaVuSans-52" transform="translate(261.421875 0)"/>
      <use xlink:href="#DejaVuSans-51" transform="translate(322.609375 0)"/>
      <use xlink:href="#DejaVuSans-4c" transform="translate(385.984375 0)"/>
      <use xlink:href="#DejaVuSans-46" transform="translate(413.765625 0)"/>
      <use xlink:href="#DejaVuSans-56" transform="translate(468.75 0)"/>
      <use xlink:href="#DejaVuSans-3" transform="translate(520.84375 0)"/>
      <use xlink:href="#DejaVuSans-58" transform="translate(552.625 0)"/>
      <use xlink:href="#DejaVuSans-56" transform="translate(616 0)"/>
      <use xlink:href="#DejaVuSans-48" transform="translate(668.09375 0)"/>
      <use xlink:href="#DejaVuSans-47" transform="translate(729.625 0)"/>
      <use xlink:href="#DejaVuSans-3" transform="translate(793.109375 0)"/>
      <use xlink:href="#DejaVuSans-b" transform="translate(824.890625 0)"/>
      <use xlink:href="#DejaVuSans-4f" transform="translate(863.90625 0)"/>
      <use xlink:href="#DejaVuSans-52" transform="translate(891.6875 0)"/>
      <use xlink:href="#DejaVuSans-4a" transform="translate(952.875 0)"/>
      <use xlink:href="#DejaVuSans-c" transform="translate(1016.359375 0)"/>
     </g>
    </g>
   </g>
   <g id="matplotlib.axis_4">
    <g id="ytick_7">
     <g id="line2d_67">
      <path d="M 375.135703 221.315547 
L 661.934531 221.315547 
" clip-path="url(#p68a7684310)" style="fill: none; stroke: #e1e0d9; stroke-opacity: 0.9; stroke-width: 0.6; stroke-linecap: square"/>
     </g>
     <g id="line2d_68">
      <g>
       <use xlink:href="#md52b3bfbbb" x="375.135703" y="221.315547" style="fill: #898781; stroke: #898781; stroke-width: 0.8"/>
      </g>
     </g>
     <g id="text_25">
      <!-- 0.07 -->
      <g style="fill: #898781" transform="translate(348.096641 224.734492) scale(0.09 -0.09)">
       <defs>
        <path id="DejaVuSans-1a" d="M 525 4666 
L 3525 4666 
L 3525 4397 
L 1831 0 
L 1172 0 
L 2766 4134 
L 525 4134 
L 525 4666 
z
" transform="scale(0.015625)"/>
       </defs>
       <use xlink:href="#DejaVuSans-13"/>
       <use xlink:href="#DejaVuSans-11" transform="translate(63.625 0)"/>
       <use xlink:href="#DejaVuSans-13" transform="translate(95.40625 0)"/>
       <use xlink:href="#DejaVuSans-1a" transform="translate(159.03125 0)"/>
      </g>
     </g>
    </g>
    <g id="ytick_8">
     <g id="line2d_69">
      <path d="M 375.135703 201.113604 
L 661.934531 201.113604 
" clip-path="url(#p68a7684310)" style="fill: none; stroke: #e1e0d9; stroke-opacity: 0.9; stroke-width: 0.6; stroke-linecap: square"/>
     </g>
     <g id="line2d_70">
      <g>
       <use xlink:href="#md52b3bfbbb" x="375.135703" y="201.113604" style="fill: #898781; stroke: #898781; stroke-width: 0.8"/>
      </g>
     </g>
     <g id="text_26">
      <!-- 0.08 -->
      <g style="fill: #898781" transform="translate(348.096641 204.532549) scale(0.09 -0.09)">
       <defs>
        <path id="DejaVuSans-1b" d="M 2034 2216 
Q 1584 2216 1326 1975 
Q 1069 1734 1069 1313 
Q 1069 891 1326 650 
Q 1584 409 2034 409 
Q 2484 409 2743 651 
Q 3003 894 3003 1313 
Q 3003 1734 2745 1975 
Q 2488 2216 2034 2216 
z
M 1403 2484 
Q 997 2584 770 2862 
Q 544 3141 544 3541 
Q 544 4100 942 4425 
Q 1341 4750 2034 4750 
Q 2731 4750 3128 4425 
Q 3525 4100 3525 3541 
Q 3525 3141 3298 2862 
Q 3072 2584 2669 2484 
Q 3125 2378 3379 2068 
Q 3634 1759 3634 1313 
Q 3634 634 3220 271 
Q 2806 -91 2034 -91 
Q 1263 -91 848 271 
Q 434 634 434 1313 
Q 434 1759 690 2068 
Q 947 2378 1403 2484 
z
M 1172 3481 
Q 1172 3119 1398 2916 
Q 1625 2713 2034 2713 
Q 2441 2713 2670 2916 
Q 2900 3119 2900 3481 
Q 2900 3844 2670 4047 
Q 2441 4250 2034 4250 
Q 1625 4250 1398 4047 
Q 1172 3844 1172 3481 
z
" transform="scale(0.015625)"/>
       </defs>
       <use xlink:href="#DejaVuSans-13"/>
       <use xlink:href="#DejaVuSans-11" transform="translate(63.625 0)"/>
       <use xlink:href="#DejaVuSans-13" transform="translate(95.40625 0)"/>
       <use xlink:href="#DejaVuSans-1b" transform="translate(159.03125 0)"/>
      </g>
     </g>
    </g>
    <g id="ytick_9">
     <g id="line2d_71">
      <path d="M 375.135703 180.91166 
L 661.934531 180.91166 
" clip-path="url(#p68a7684310)" style="fill: none; stroke: #e1e0d9; stroke-opacity: 0.9; stroke-width: 0.6; stroke-linecap: square"/>
     </g>
     <g id="line2d_72">
      <g>
       <use xlink:href="#md52b3bfbbb" x="375.135703" y="180.91166" style="fill: #898781; stroke: #898781; stroke-width: 0.8"/>
      </g>
     </g>
     <g id="text_27">
      <!-- 0.09 -->
      <g style="fill: #898781" transform="translate(348.096641 184.330605) scale(0.09 -0.09)">
       <use xlink:href="#DejaVuSans-13"/>
       <use xlink:href="#DejaVuSans-11" transform="translate(63.625 0)"/>
       <use xlink:href="#DejaVuSans-13" transform="translate(95.40625 0)"/>
       <use xlink:href="#DejaVuSans-1c" transform="translate(159.03125 0)"/>
      </g>
     </g>
    </g>
    <g id="ytick_10">
     <g id="line2d_73">
      <path d="M 375.135703 160.709717 
L 661.934531 160.709717 
" clip-path="url(#p68a7684310)" style="fill: none; stroke: #e1e0d9; stroke-opacity: 0.9; stroke-width: 0.6; stroke-linecap: square"/>
     </g>
     <g id="line2d_74">
      <g>
       <use xlink:href="#md52b3bfbbb" x="375.135703" y="160.709717" style="fill: #898781; stroke: #898781; stroke-width: 0.8"/>
      </g>
     </g>
     <g id="text_28">
      <!-- 0.10 -->
      <g style="fill: #898781" transform="translate(348.096641 164.128662) scale(0.09 -0.09)">
       <use xlink:href="#DejaVuSans-13"/>
       <use xlink:href="#DejaVuSans-11" transform="translate(63.625 0)"/>
       <use xlink:href="#DejaVuSans-14" transform="translate(95.40625 0)"/>
       <use xlink:href="#DejaVuSans-13" transform="translate(159.03125 0)"/>
      </g>
     </g>
    </g>
    <g id="ytick_11">
     <g id="line2d_75">
      <path d="M 375.135703 140.507773 
L 661.934531 140.507773 
" clip-path="url(#p68a7684310)" style="fill: none; stroke: #e1e0d9; stroke-opacity: 0.9; stroke-width: 0.6; stroke-linecap: square"/>
     </g>
     <g id="line2d_76">
      <g>
       <use xlink:href="#md52b3bfbbb" x="375.135703" y="140.507773" style="fill: #898781; stroke: #898781; stroke-width: 0.8"/>
      </g>
     </g>
     <g id="text_29">
      <!-- 0.11 -->
      <g style="fill: #898781" transform="translate(348.096641 143.926719) scale(0.09 -0.09)">
       <use xlink:href="#DejaVuSans-13"/>
       <use xlink:href="#DejaVuSans-11" transform="translate(63.625 0)"/>
       <use xlink:href="#DejaVuSans-14" transform="translate(95.40625 0)"/>
       <use xlink:href="#DejaVuSans-14" transform="translate(159.03125 0)"/>
      </g>
     </g>
    </g>
    <g id="ytick_12">
     <g id="line2d_77">
      <path d="M 375.135703 120.30583 
L 661.934531 120.30583 
" clip-path="url(#p68a7684310)" style="fill: none; stroke: #e1e0d9; stroke-opacity: 0.9; stroke-width: 0.6; stroke-linecap: square"/>
     </g>
     <g id="line2d_78">
      <g>
       <use xlink:href="#md52b3bfbbb" x="375.135703" y="120.30583" style="fill: #898781; stroke: #898781; stroke-width: 0.8"/>
      </g>
     </g>
     <g id="text_30">
      <!-- 0.12 -->
      <g style="fill: #898781" transform="translate(348.096641 123.724775) scale(0.09 -0.09)">
       <use xlink:href="#DejaVuSans-13"/>
       <use xlink:href="#DejaVuSans-11" transform="translate(63.625 0)"/>
       <use xlink:href="#DejaVuSans-14" transform="translate(95.40625 0)"/>
       <use xlink:href="#DejaVuSans-15" transform="translate(159.03125 0)"/>
      </g>
     </g>
    </g>
    <g id="ytick_13">
     <g id="line2d_79">
      <path d="M 375.135703 100.103887 
L 661.934531 100.103887 
" clip-path="url(#p68a7684310)" style="fill: none; stroke: #e1e0d9; stroke-opacity: 0.9; stroke-width: 0.6; stroke-linecap: square"/>
     </g>
     <g id="line2d_80">
      <g>
       <use xlink:href="#md52b3bfbbb" x="375.135703" y="100.103887" style="fill: #898781; stroke: #898781; stroke-width: 0.8"/>
      </g>
     </g>
     <g id="text_31">
      <!-- 0.13 -->
      <g style="fill: #898781" transform="translate(348.096641 103.522832) scale(0.09 -0.09)">
       <use xlink:href="#DejaVuSans-13"/>
       <use xlink:href="#DejaVuSans-11" transform="translate(63.625 0)"/>
       <use xlink:href="#DejaVuSans-14" transform="translate(95.40625 0)"/>
       <use xlink:href="#DejaVuSans-16" transform="translate(159.03125 0)"/>
      </g>
     </g>
    </g>
    <g id="ytick_14">
     <g id="line2d_81">
      <path d="M 375.135703 79.901943 
L 661.934531 79.901943 
" clip-path="url(#p68a7684310)" style="fill: none; stroke: #e1e0d9; stroke-opacity: 0.9; stroke-width: 0.6; stroke-linecap: square"/>
     </g>
     <g id="line2d_82">
      <g>
       <use xlink:href="#md52b3bfbbb" x="375.135703" y="79.901943" style="fill: #898781; stroke: #898781; stroke-width: 0.8"/>
      </g>
     </g>
     <g id="text_32">
      <!-- 0.14 -->
      <g style="fill: #898781" transform="translate(348.096641 83.320889) scale(0.09 -0.09)">
       <use xlink:href="#DejaVuSans-13"/>
       <use xlink:href="#DejaVuSans-11" transform="translate(63.625 0)"/>
       <use xlink:href="#DejaVuSans-14" transform="translate(95.40625 0)"/>
       <use xlink:href="#DejaVuSans-17" transform="translate(159.03125 0)"/>
      </g>
     </g>
    </g>
    <g id="ytick_15">
     <g id="line2d_83">
      <path d="M 375.135703 59.7 
L 661.934531 59.7 
" clip-path="url(#p68a7684310)" style="fill: none; stroke: #e1e0d9; stroke-opacity: 0.9; stroke-width: 0.6; stroke-linecap: square"/>
     </g>
     <g id="line2d_84">
      <g>
       <use xlink:href="#md52b3bfbbb" x="375.135703" y="59.7" style="fill: #898781; stroke: #898781; stroke-width: 0.8"/>
      </g>
     </g>
     <g id="text_33">
      <!-- 0.15 -->
      <g style="fill: #898781" transform="translate(348.096641 63.118945) scale(0.09 -0.09)">
       <use xlink:href="#DejaVuSans-13"/>
       <use xlink:href="#DejaVuSans-11" transform="translate(63.625 0)"/>
       <use xlink:href="#DejaVuSans-14" transform="translate(95.40625 0)"/>
       <use xlink:href="#DejaVuSans-18" transform="translate(159.03125 0)"/>
      </g>
     </g>
    </g>
    <g id="text_34">
     <!-- overshoot, as a fraction of the jump -->
     <g style="fill: #52514e" transform="translate(341.694297 230.200742) rotate(-90) scale(0.1 -0.1)">
      <defs>
       <path id="DejaVuSans-49" d="M 2375 4863 
L 2375 4384 
L 1825 4384 
Q 1516 4384 1395 4259 
Q 1275 4134 1275 3809 
L 1275 3500 
L 2222 3500 
L 2222 3053 
L 1275 3053 
L 1275 0 
L 697 0 
L 697 3053 
L 147 3053 
L 147 3500 
L 697 3500 
L 697 3744 
Q 697 4328 969 4595 
Q 1241 4863 1831 4863 
L 2375 4863 
z
" transform="scale(0.015625)"/>
       <path id="DejaVuSans-4d" d="M 603 3500 
L 1178 3500 
L 1178 -63 
Q 1178 -731 923 -1031 
Q 669 -1331 103 -1331 
L -116 -1331 
L -116 -844 
L 38 -844 
Q 366 -844 484 -692 
Q 603 -541 603 -63 
L 603 3500 
z
M 603 4863 
L 1178 4863 
L 1178 4134 
L 603 4134 
L 603 4863 
z
" transform="scale(0.015625)"/>
       <path id="DejaVuSans-53" d="M 1159 525 
L 1159 -1331 
L 581 -1331 
L 581 3500 
L 1159 3500 
L 1159 2969 
Q 1341 3281 1617 3432 
Q 1894 3584 2278 3584 
Q 2916 3584 3314 3078 
Q 3713 2572 3713 1747 
Q 3713 922 3314 415 
Q 2916 -91 2278 -91 
Q 1894 -91 1617 61 
Q 1341 213 1159 525 
z
M 3116 1747 
Q 3116 2381 2855 2742 
Q 2594 3103 2138 3103 
Q 1681 3103 1420 2742 
Q 1159 2381 1159 1747 
Q 1159 1113 1420 752 
Q 1681 391 2138 391 
Q 2594 391 2855 752 
Q 3116 1113 3116 1747 
z
" transform="scale(0.015625)"/>
      </defs>
      <use xlink:href="#DejaVuSans-52"/>
      <use xlink:href="#DejaVuSans-59" transform="translate(61.1875 0)"/>
      <use xlink:href="#DejaVuSans-48" transform="translate(120.375 0)"/>
      <use xlink:href="#DejaVuSans-55" transform="translate(181.90625 0)"/>
      <use xlink:href="#DejaVuSans-56" transform="translate(223.015625 0)"/>
      <use xlink:href="#DejaVuSans-4b" transform="translate(275.109375 0)"/>
      <use xlink:href="#DejaVuSans-52" transform="translate(338.484375 0)"/>
      <use xlink:href="#DejaVuSans-52" transform="translate(399.671875 0)"/>
      <use xlink:href="#DejaVuSans-57" transform="translate(460.859375 0)"/>
      <use xlink:href="#DejaVuSans-f" transform="translate(500.0625 0)"/>
      <use xlink:href="#DejaVuSans-3" transform="translate(531.84375 0)"/>
      <use xlink:href="#DejaVuSans-44" transform="translate(563.625 0)"/>
      <use xlink:href="#DejaVuSans-56" transform="translate(624.90625 0)"/>
      <use xlink:href="#DejaVuSans-3" transform="translate(677 0)"/>
      <use xlink:href="#DejaVuSans-44" transform="translate(708.78125 0)"/>
      <use xlink:href="#DejaVuSans-3" transform="translate(770.0625 0)"/>
      <use xlink:href="#DejaVuSans-49" transform="translate(801.84375 0)"/>
      <use xlink:href="#DejaVuSans-55" transform="translate(837.046875 0)"/>
      <use xlink:href="#DejaVuSans-44" transform="translate(878.15625 0)"/>
      <use xlink:href="#DejaVuSans-46" transform="translate(939.4375 0)"/>
      <use xlink:href="#DejaVuSans-57" transform="translate(994.421875 0)"/>
      <use xlink:href="#DejaVuSans-4c" transform="translate(1033.625 0)"/>
      <use xlink:href="#DejaVuSans-52" transform="translate(1061.40625 0)"/>
      <use xlink:href="#DejaVuSans-51" transform="translate(1122.59375 0)"/>
      <use xlink:href="#DejaVuSans-3" transform="translate(1185.96875 0)"/>
      <use xlink:href="#DejaVuSans-52" transform="translate(1217.75 0)"/>
      <use xlink:href="#DejaVuSans-49" transform="translate(1278.9375 0)"/>
      <use xlink:href="#DejaVuSans-3" transform="translate(1314.140625 0)"/>
      <use xlink:href="#DejaVuSans-57" transform="translate(1345.921875 0)"/>
      <use xlink:href="#DejaVuSans-4b" transform="translate(1385.125 0)"/>
      <use xlink:href="#DejaVuSans-48" transform="translate(1448.5 0)"/>
      <use xlink:href="#DejaVuSans-3" transform="translate(1510.03125 0)"/>
      <use xlink:href="#DejaVuSans-4d" transform="translate(1541.8125 0)"/>
      <use xlink:href="#DejaVuSans-58" transform="translate(1569.59375 0)"/>
      <use xlink:href="#DejaVuSans-50" transform="translate(1632.96875 0)"/>
      <use xlink:href="#DejaVuSans-53" transform="translate(1730.375 0)"/>
     </g>
    </g>
   </g>
   <g id="line2d_85">
    <path d="M 388.172013 86.731057 
L 417.132534 160.283984 
L 434.073352 172.470635 
L 455.416259 178.5602 
L 479.974691 180.901826 
L 506.547064 181.651011 
L 534.260292 181.865046 
L 562.582919 181.922394 
L 591.220803 181.937302 
L 620.019066 181.940946 
L 648.898221 181.942125 
" clip-path="url(#p68a7684310)" style="fill: none; stroke: #2a78d6; stroke-width: 1.7; stroke-linecap: square"/>
    <defs>
     <path id="mc1d19885b8" d="M 0 2 
C 0.530406 2 1.03916 1.789267 1.414214 1.414214 
C 1.789267 1.03916 2 0.530406 2 0 
C 2 -0.530406 1.789267 -1.03916 1.414214 -1.414214 
C 1.03916 -1.789267 0.530406 -2 0 -2 
C -0.530406 -2 -1.03916 -1.789267 -1.414214 -1.414214 
C -1.789267 -1.03916 -2 -0.530406 -2 0 
C -2 0.530406 -1.789267 1.03916 -1.414214 1.414214 
C -1.03916 1.789267 -0.530406 2 0 2 
z
" style="stroke: #2a78d6"/>
    </defs>
    <g clip-path="url(#p68a7684310)">
     <use xlink:href="#mc1d19885b8" x="388.172013" y="86.731057" style="fill: #2a78d6; stroke: #2a78d6"/>
     <use xlink:href="#mc1d19885b8" x="417.132534" y="160.283984" style="fill: #2a78d6; stroke: #2a78d6"/>
     <use xlink:href="#mc1d19885b8" x="434.073352" y="172.470635" style="fill: #2a78d6; stroke: #2a78d6"/>
     <use xlink:href="#mc1d19885b8" x="455.416259" y="178.5602" style="fill: #2a78d6; stroke: #2a78d6"/>
     <use xlink:href="#mc1d19885b8" x="479.974691" y="180.901826" style="fill: #2a78d6; stroke: #2a78d6"/>
     <use xlink:href="#mc1d19885b8" x="506.547064" y="181.651011" style="fill: #2a78d6; stroke: #2a78d6"/>
     <use xlink:href="#mc1d19885b8" x="534.260292" y="181.865046" style="fill: #2a78d6; stroke: #2a78d6"/>
     <use xlink:href="#mc1d19885b8" x="562.582919" y="181.922394" style="fill: #2a78d6; stroke: #2a78d6"/>
     <use xlink:href="#mc1d19885b8" x="591.220803" y="181.937302" style="fill: #2a78d6; stroke: #2a78d6"/>
     <use xlink:href="#mc1d19885b8" x="620.019066" y="181.940946" style="fill: #2a78d6; stroke: #2a78d6"/>
     <use xlink:href="#mc1d19885b8" x="648.898221" y="181.942125" style="fill: #2a78d6; stroke: #2a78d6"/>
    </g>
   </g>
   <g id="line2d_86">
    <path d="M 375.135703 181.942363 
L 661.934531 181.942363 
" clip-path="url(#p68a7684310)" style="fill: none; stroke-dasharray: 5.18,2.24; stroke-dashoffset: 0; stroke: #e34948; stroke-width: 1.4"/>
   </g>
   <g id="patch_6">
    <path d="M 375.135703 221.315547 
L 375.135703 59.7 
" style="fill: none; stroke: #c3c2b7; stroke-width: 0.8; stroke-linejoin: miter; stroke-linecap: square"/>
   </g>
   <g id="patch_7">
    <path d="M 375.135703 221.315547 
L 661.934531 221.315547 
" style="fill: none; stroke: #c3c2b7; stroke-width: 0.8; stroke-linejoin: miter; stroke-linecap: square"/>
   </g>
   <g id="text_35">
    <!-- the 9% that never goes away -->
    <g transform="translate(375.135703 53.7) scale(0.12 -0.12)">
     <defs>
      <path id="DejaVuSans-8" d="M 4653 2053 
Q 4381 2053 4226 1822 
Q 4072 1591 4072 1178 
Q 4072 772 4226 539 
Q 4381 306 4653 306 
Q 4919 306 5073 539 
Q 5228 772 5228 1178 
Q 5228 1588 5073 1820 
Q 4919 2053 4653 2053 
z
M 4653 2450 
Q 5147 2450 5437 2106 
Q 5728 1763 5728 1178 
Q 5728 594 5436 251 
Q 5144 -91 4653 -91 
Q 4153 -91 3862 251 
Q 3572 594 3572 1178 
Q 3572 1766 3864 2108 
Q 4156 2450 4653 2450 
z
M 1428 4353 
Q 1159 4353 1004 4120 
Q 850 3888 850 3481 
Q 850 3069 1003 2837 
Q 1156 2606 1428 2606 
Q 1700 2606 1854 2837 
Q 2009 3069 2009 3481 
Q 2009 3884 1853 4118 
Q 1697 4353 1428 4353 
z
M 4250 4750 
L 4750 4750 
L 1831 -91 
L 1331 -91 
L 4250 4750 
z
M 1428 4750 
Q 1922 4750 2215 4408 
Q 2509 4066 2509 3481 
Q 2509 2891 2217 2550 
Q 1925 2209 1428 2209 
Q 931 2209 642 2551 
Q 353 2894 353 3481 
Q 353 4063 643 4406 
Q 934 4750 1428 4750 
z
" transform="scale(0.015625)"/>
      <path id="DejaVuSans-5c" d="M 2059 -325 
Q 1816 -950 1584 -1140 
Q 1353 -1331 966 -1331 
L 506 -1331 
L 506 -850 
L 844 -850 
Q 1081 -850 1212 -737 
Q 1344 -625 1503 -206 
L 1606 56 
L 191 3500 
L 800 3500 
L 1894 763 
L 2988 3500 
L 3597 3500 
L 2059 -325 
z
" transform="scale(0.015625)"/>
     </defs>
     <use xlink:href="#DejaVuSans-57"/>
     <use xlink:href="#DejaVuSans-4b" transform="translate(39.203125 0)"/>
     <use xlink:href="#DejaVuSans-48" transform="translate(102.578125 0)"/>
     <use xlink:href="#DejaVuSans-3" transform="translate(164.109375 0)"/>
     <use xlink:href="#DejaVuSans-1c" transform="translate(195.890625 0)"/>
     <use xlink:href="#DejaVuSans-8" transform="translate(259.515625 0)"/>
     <use xlink:href="#DejaVuSans-3" transform="translate(354.53125 0)"/>
     <use xlink:href="#DejaVuSans-57" transform="translate(386.3125 0)"/>
     <use xlink:href="#DejaVuSans-4b" transform="translate(425.515625 0)"/>
     <use xlink:href="#DejaVuSans-44" transform="translate(488.890625 0)"/>
     <use xlink:href="#DejaVuSans-57" transform="translate(550.171875 0)"/>
     <use xlink:href="#DejaVuSans-3" transform="translate(589.375 0)"/>
     <use xlink:href="#DejaVuSans-51" transform="translate(621.15625 0)"/>
     <use xlink:href="#DejaVuSans-48" transform="translate(684.53125 0)"/>
     <use xlink:href="#DejaVuSans-59" transform="translate(746.0625 0)"/>
     <use xlink:href="#DejaVuSans-48" transform="translate(805.25 0)"/>
     <use xlink:href="#DejaVuSans-55" transform="translate(866.78125 0)"/>
     <use xlink:href="#DejaVuSans-3" transform="translate(907.890625 0)"/>
     <use xlink:href="#DejaVuSans-4a" transform="translate(939.671875 0)"/>
     <use xlink:href="#DejaVuSans-52" transform="translate(1003.15625 0)"/>
     <use xlink:href="#DejaVuSans-48" transform="translate(1064.34375 0)"/>
     <use xlink:href="#DejaVuSans-56" transform="translate(1125.875 0)"/>
     <use xlink:href="#DejaVuSans-3" transform="translate(1177.96875 0)"/>
     <use xlink:href="#DejaVuSans-44" transform="translate(1209.75 0)"/>
     <use xlink:href="#DejaVuSans-5a" transform="translate(1271.03125 0)"/>
     <use xlink:href="#DejaVuSans-44" transform="translate(1352.8125 0)"/>
     <use xlink:href="#DejaVuSans-5c" transform="translate(1414.09375 0)"/>
    </g>
   </g>
   <g id="legend_2">
    <g id="line2d_87">
     <path d="M 489.430781 70.17875 
L 497.430781 70.17875 
L 505.430781 70.17875 
" style="fill: none; stroke-dasharray: 5.18,2.24; stroke-dashoffset: 0; stroke: #e34948; stroke-width: 1.4"/>
    </g>
    <g id="text_36">
     <!-- Wilbraham–Gibbs constant 0.08949 -->
     <g style="fill: #52514e" transform="translate(511.830781 72.97875) scale(0.08 -0.08)">
      <defs>
       <path id="DejaVuSans-3a" d="M 213 4666 
L 850 4666 
L 1831 722 
L 2809 4666 
L 3519 4666 
L 4500 722 
L 5478 4666 
L 6119 4666 
L 4947 0 
L 4153 0 
L 3169 4050 
L 2175 0 
L 1381 0 
L 213 4666 
z
" transform="scale(0.015625)"/>
       <path id="DejaVuSans-45" d="M 3116 1747 
Q 3116 2381 2855 2742 
Q 2594 3103 2138 3103 
Q 1681 3103 1420 2742 
Q 1159 2381 1159 1747 
Q 1159 1113 1420 752 
Q 1681 391 2138 391 
Q 2594 391 2855 752 
Q 3116 1113 3116 1747 
z
M 1159 2969 
Q 1341 3281 1617 3432 
Q 1894 3584 2278 3584 
Q 2916 3584 3314 3078 
Q 3713 2572 3713 1747 
Q 3713 922 3314 415 
Q 2916 -91 2278 -91 
Q 1894 -91 1617 61 
Q 1341 213 1159 525 
L 1159 0 
L 581 0 
L 581 4863 
L 1159 4863 
L 1159 2969 
z
" transform="scale(0.015625)"/>
       <path id="DejaVuSans-af5" d="M 313 1978 
L 2888 1978 
L 2888 1528 
L 313 1528 
L 313 1978 
z
" transform="scale(0.015625)"/>
       <path id="DejaVuSans-2a" d="M 3809 666 
L 3809 1919 
L 2778 1919 
L 2778 2438 
L 4434 2438 
L 4434 434 
Q 4069 175 3628 42 
Q 3188 -91 2688 -91 
Q 1594 -91 976 548 
Q 359 1188 359 2328 
Q 359 3472 976 4111 
Q 1594 4750 2688 4750 
Q 3144 4750 3555 4637 
Q 3966 4525 4313 4306 
L 4313 3634 
Q 3963 3931 3569 4081 
Q 3175 4231 2741 4231 
Q 1884 4231 1454 3753 
Q 1025 3275 1025 2328 
Q 1025 1384 1454 906 
Q 1884 428 2741 428 
Q 3075 428 3337 486 
Q 3600 544 3809 666 
z
" transform="scale(0.015625)"/>
      </defs>
      <use xlink:href="#DejaVuSans-3a"/>
      <use xlink:href="#DejaVuSans-4c" transform="translate(96.671875 0)"/>
      <use xlink:href="#DejaVuSans-4f" transform="translate(124.453125 0)"/>
      <use xlink:href="#DejaVuSans-45" transform="translate(152.234375 0)"/>
      <use xlink:href="#DejaVuSans-55" transform="translate(215.71875 0)"/>
      <use xlink:href="#DejaVuSans-44" transform="translate(256.828125 0)"/>
      <use xlink:href="#DejaVuSans-4b" transform="translate(318.109375 0)"/>
      <use xlink:href="#DejaVuSans-44" transform="translate(381.484375 0)"/>
      <use xlink:href="#DejaVuSans-50" transform="translate(442.765625 0)"/>
      <use xlink:href="#DejaVuSans-af5" transform="translate(540.171875 0)"/>
      <use xlink:href="#DejaVuSans-2a" transform="translate(590.171875 0)"/>
      <use xlink:href="#DejaVuSans-4c" transform="translate(667.65625 0)"/>
      <use xlink:href="#DejaVuSans-45" transform="translate(695.4375 0)"/>
      <use xlink:href="#DejaVuSans-45" transform="translate(758.921875 0)"/>
      <use xlink:href="#DejaVuSans-56" transform="translate(822.40625 0)"/>
      <use xlink:href="#DejaVuSans-3" transform="translate(874.5 0)"/>
      <use xlink:href="#DejaVuSans-46" transform="translate(906.28125 0)"/>
      <use xlink:href="#DejaVuSans-52" transform="translate(961.265625 0)"/>
      <use xlink:href="#DejaVuSans-51" transform="translate(1022.453125 0)"/>
      <use xlink:href="#DejaVuSans-56" transform="translate(1085.828125 0)"/>
      <use xlink:href="#DejaVuSans-57" transform="translate(1137.921875 0)"/>
      <use xlink:href="#DejaVuSans-44" transform="translate(1177.125 0)"/>
      <use xlink:href="#DejaVuSans-51" transform="translate(1238.40625 0)"/>
      <use xlink:href="#DejaVuSans-57" transform="translate(1301.78125 0)"/>
      <use xlink:href="#DejaVuSans-3" transform="translate(1340.984375 0)"/>
      <use xlink:href="#DejaVuSans-13" transform="translate(1372.765625 0)"/>
      <use xlink:href="#DejaVuSans-11" transform="translate(1436.390625 0)"/>
      <use xlink:href="#DejaVuSans-13" transform="translate(1468.171875 0)"/>
      <use xlink:href="#DejaVuSans-1b" transform="translate(1531.796875 0)"/>
      <use xlink:href="#DejaVuSans-1c" transform="translate(1595.421875 0)"/>
      <use xlink:href="#DejaVuSans-17" transform="translate(1659.046875 0)"/>
      <use xlink:href="#DejaVuSans-1c" transform="translate(1722.671875 0)"/>
     </g>
    </g>
   </g>
  </g>
  <g id="text_37">
   <!-- A finite recipe cannot make a sharp edge — it can only make the ringing narrower -->
   <g style="fill: #52514e" transform="translate(118.318359 15.178359) scale(0.105 -0.105)">
    <defs>
     <path id="DejaVuSans-24" d="M 2188 4044 
L 1331 1722 
L 3047 1722 
L 2188 4044 
z
M 1831 4666 
L 2547 4666 
L 4325 0 
L 3669 0 
L 3244 1197 
L 1141 1197 
L 716 0 
L 50 0 
L 1831 4666 
z
" transform="scale(0.015625)"/>
     <path id="DejaVuSans-13af" d="M 3431 3500 
L 3431 0 
L 2853 0 
L 2853 3053 
L 1275 3053 
L 1275 0 
L 697 0 
L 697 3053 
L 147 3053 
L 147 3500 
L 697 3500 
L 697 3744 
Q 697 4316 967 4589 
Q 1238 4863 1797 4863 
L 2375 4863 
L 2375 4384 
L 1825 4384 
Q 1516 4384 1395 4259 
Q 1275 4134 1275 3809 
L 1275 3500 
L 3431 3500 
z
M 2853 4856 
L 3431 4856 
L 3431 4128 
L 2853 4128 
L 2853 4856 
z
" transform="scale(0.015625)"/>
     <path id="DejaVuSans-4e" d="M 581 4863 
L 1159 4863 
L 1159 1991 
L 2875 3500 
L 3609 3500 
L 1753 1863 
L 3688 0 
L 2938 0 
L 1159 1709 
L 1159 0 
L 581 0 
L 581 4863 
z
" transform="scale(0.015625)"/>
     <path id="DejaVuSans-af6" d="M 313 1978 
L 6088 1978 
L 6088 1528 
L 313 1528 
L 313 1978 
z
" transform="scale(0.015625)"/>
    </defs>
    <use xlink:href="#DejaVuSans-24"/>
    <use xlink:href="#DejaVuSans-3" transform="translate(68.40625 0)"/>
    <use xlink:href="#DejaVuSans-13af" transform="translate(100.1875 0)"/>
    <use xlink:href="#DejaVuSans-51" transform="translate(163.171875 0)"/>
    <use xlink:href="#DejaVuSans-4c" transform="translate(226.546875 0)"/>
    <use xlink:href="#DejaVuSans-57" transform="translate(254.328125 0)"/>
    <use xlink:href="#DejaVuSans-48" transform="translate(293.53125 0)"/>
    <use xlink:href="#DejaVuSans-3" transform="translate(355.0625 0)"/>
    <use xlink:href="#DejaVuSans-55" transform="translate(386.84375 0)"/>
    <use xlink:href="#DejaVuSans-48" transform="translate(425.75 0)"/>
    <use xlink:href="#DejaVuSans-46" transform="translate(487.28125 0)"/>
    <use xlink:href="#DejaVuSans-4c" transform="translate(542.265625 0)"/>
    <use xlink:href="#DejaVuSans-53" transform="translate(570.046875 0)"/>
    <use xlink:href="#DejaVuSans-48" transform="translate(633.53125 0)"/>
    <use xlink:href="#DejaVuSans-3" transform="translate(695.0625 0)"/>
    <use xlink:href="#DejaVuSans-46" transform="translate(726.84375 0)"/>
    <use xlink:href="#DejaVuSans-44" transform="translate(781.828125 0)"/>
    <use xlink:href="#DejaVuSans-51" transform="translate(843.109375 0)"/>
    <use xlink:href="#DejaVuSans-51" transform="translate(906.484375 0)"/>
    <use xlink:href="#DejaVuSans-52" transform="translate(969.859375 0)"/>
    <use xlink:href="#DejaVuSans-57" transform="translate(1031.046875 0)"/>
    <use xlink:href="#DejaVuSans-3" transform="translate(1070.25 0)"/>
    <use xlink:href="#DejaVuSans-50" transform="translate(1102.03125 0)"/>
    <use xlink:href="#DejaVuSans-44" transform="translate(1199.4375 0)"/>
    <use xlink:href="#DejaVuSans-4e" transform="translate(1260.71875 0)"/>
    <use xlink:href="#DejaVuSans-48" transform="translate(1315.0625 0)"/>
    <use xlink:href="#DejaVuSans-3" transform="translate(1376.59375 0)"/>
    <use xlink:href="#DejaVuSans-44" transform="translate(1408.375 0)"/>
    <use xlink:href="#DejaVuSans-3" transform="translate(1469.65625 0)"/>
    <use xlink:href="#DejaVuSans-56" transform="translate(1501.4375 0)"/>
    <use xlink:href="#DejaVuSans-4b" transform="translate(1553.53125 0)"/>
    <use xlink:href="#DejaVuSans-44" transform="translate(1616.90625 0)"/>
    <use xlink:href="#DejaVuSans-55" transform="translate(1678.1875 0)"/>
    <use xlink:href="#DejaVuSans-53" transform="translate(1719.296875 0)"/>
    <use xlink:href="#DejaVuSans-3" transform="translate(1782.78125 0)"/>
    <use xlink:href="#DejaVuSans-48" transform="translate(1814.5625 0)"/>
    <use xlink:href="#DejaVuSans-47" transform="translate(1876.09375 0)"/>
    <use xlink:href="#DejaVuSans-4a" transform="translate(1939.578125 0)"/>
    <use xlink:href="#DejaVuSans-48" transform="translate(2003.0625 0)"/>
    <use xlink:href="#DejaVuSans-3" transform="translate(2064.59375 0)"/>
    <use xlink:href="#DejaVuSans-af6" transform="translate(2096.375 0)"/>
    <use xlink:href="#DejaVuSans-3" transform="translate(2196.375 0)"/>
    <use xlink:href="#DejaVuSans-4c" transform="translate(2228.15625 0)"/>
    <use xlink:href="#DejaVuSans-57" transform="translate(2255.9375 0)"/>
    <use xlink:href="#DejaVuSans-3" transform="translate(2295.140625 0)"/>
    <use xlink:href="#DejaVuSans-46" transform="translate(2326.921875 0)"/>
    <use xlink:href="#DejaVuSans-44" transform="translate(2381.90625 0)"/>
    <use xlink:href="#DejaVuSans-51" transform="translate(2443.1875 0)"/>
    <use xlink:href="#DejaVuSans-3" transform="translate(2506.5625 0)"/>
    <use xlink:href="#DejaVuSans-52" transform="translate(2538.34375 0)"/>
    <use xlink:href="#DejaVuSans-51" transform="translate(2599.53125 0)"/>
    <use xlink:href="#DejaVuSans-4f" transform="translate(2662.90625 0)"/>
    <use xlink:href="#DejaVuSans-5c" transform="translate(2690.6875 0)"/>
    <use xlink:href="#DejaVuSans-3" transform="translate(2749.875 0)"/>
    <use xlink:href="#DejaVuSans-50" transform="translate(2781.65625 0)"/>
    <use xlink:href="#DejaVuSans-44" transform="translate(2879.0625 0)"/>
    <use xlink:href="#DejaVuSans-4e" transform="translate(2940.34375 0)"/>
    <use xlink:href="#DejaVuSans-48" transform="translate(2994.6875 0)"/>
    <use xlink:href="#DejaVuSans-3" transform="translate(3056.21875 0)"/>
    <use xlink:href="#DejaVuSans-57" transform="translate(3088 0)"/>
    <use xlink:href="#DejaVuSans-4b" transform="translate(3127.203125 0)"/>
    <use xlink:href="#DejaVuSans-48" transform="translate(3190.578125 0)"/>
    <use xlink:href="#DejaVuSans-3" transform="translate(3252.109375 0)"/>
    <use xlink:href="#DejaVuSans-55" transform="translate(3283.890625 0)"/>
    <use xlink:href="#DejaVuSans-4c" transform="translate(3325 0)"/>
    <use xlink:href="#DejaVuSans-51" transform="translate(3352.78125 0)"/>
    <use xlink:href="#DejaVuSans-4a" transform="translate(3416.15625 0)"/>
    <use xlink:href="#DejaVuSans-4c" transform="translate(3479.640625 0)"/>
    <use xlink:href="#DejaVuSans-51" transform="translate(3507.421875 0)"/>
    <use xlink:href="#DejaVuSans-4a" transform="translate(3570.796875 0)"/>
    <use xlink:href="#DejaVuSans-3" transform="translate(3634.28125 0)"/>
    <use xlink:href="#DejaVuSans-51" transform="translate(3666.0625 0)"/>
    <use xlink:href="#DejaVuSans-44" transform="translate(3729.4375 0)"/>
    <use xlink:href="#DejaVuSans-55" transform="translate(3790.71875 0)"/>
    <use xlink:href="#DejaVuSans-55" transform="translate(3830.078125 0)"/>
    <use xlink:href="#DejaVuSans-52" transform="translate(3868.984375 0)"/>
    <use xlink:href="#DejaVuSans-5a" transform="translate(3930.171875 0)"/>
    <use xlink:href="#DejaVuSans-48" transform="translate(4011.953125 0)"/>
    <use xlink:href="#DejaVuSans-55" transform="translate(4073.484375 0)"/>
   </g>
  </g>
 </g>
 <defs>
  <clipPath id="p616aff8ac7">
   <rect x="36.054531" y="59.7" width="286.798828" height="161.615547"/>
  </clipPath>
  <clipPath id="p68a7684310">
   <rect x="375.135703" y="59.7" width="286.798828" height="161.615547"/>
  </clipPath>
 </defs>
</svg>
